<?xml version="1.0" encoding="utf-8"?>
<!-- Generator: Adobe Illustrator 23.0.1, SVG Export Plug-In . SVG Version: 6.00 Build 0)  -->
<svg version="1.1" id="Layer_1" xmlns="http://www.w3.org/2000/svg" xmlns:xlink="http://www.w3.org/1999/xlink" x="0px" y="0px"
	 viewBox="0 0 680 680" style="enable-background:new 0 0 680 680;" xml:space="preserve">
<style type="text/css">
	.st0{fill:#A769FF;}
	.st1{fill:#DDFFFF;}
	.st2{fill:#353F69;}
	.st3{fill:#75CAFF;}
	.st4{fill:#354E6F;}
	.st5{fill:#009FD6;}
	.st6{fill:#2D7BFF;}
	.st7{fill:url(#SVGID_1_);}
	.st8{fill:#006699;}
	.st9{fill:#009DD0;}
	.st10{fill:#004FA1;}
	.st11{fill:#EB3854;}
	.st12{fill:#E9747F;}
	.st13{fill:#44B658;}
	.st14{fill:#487CBE;}
	.st15{fill:url(#SVGID_2_);}
	.st16{fill:url(#SVGID_3_);}
	.st17{fill:#FFFFFF;}
	.st18{fill:#30261A;}
	.st19{fill:url(#SVGID_4_);}
</style>
<g>
	<path class="st0" d="M385.2,529.4H156.9c-6.6,0-12-5.4-12-12V265.8c0-6.6,5.4-12,12-12h228.3c6.6,0,12,5.4,12,12v251.6
		C397.2,524,391.8,529.4,385.2,529.4z"/>
	<path class="st1" d="M367.4,459.9c0,0-3,3.1-8,8.2l0,0c-1.3,1.3-2.8,2.8-4.4,4.4c-22.9,22.9-70.6,69.1-82,68.3c-0.1,0-0.1,0-0.2,0
		c-0.2,0-0.4,0-0.6-0.1c-13.1-2.5-59.5-43.4-78.8-60.7c-5.3-4.7-8.5-7.7-8.5-7.7s-1.3-1.9-2.5-5c-1.5-3.9-2.7-9.8-0.8-16.4
		c0.4-1.4,0.6-4.8,0.4-9.6c-0.1-2.8-0.2-6.1-0.4-9.8c0-0.5-0.1-1-0.1-1.5v0c-0.1-2.3-0.3-4.8-0.5-7.4c-0.2-3.7-0.5-7.6-0.9-11.7
		c-0.7-9-1.6-18.8-2.5-28.8c-0.6-5.8-1.1-11.8-1.7-17.6c-0.9-8.7-1.7-17.2-2.5-25.3c-2.8-27-5.2-48.1-5.2-48.1l3-1.4l14.6-6.9
		l1.7-0.8l9.4-4.4c0,0,0,0,0,0l42.8-0.5l66-0.8l44.5-0.6l4.8-0.1c0,0,0.8,2.5,2,6.6c0.4,1.4,0.9,2.9,1.3,4.6
		c1.4,4.9,2.9,11,4.3,17.6c1.5,7.3,2.8,15,3.1,22.1c0.1,1.6,0.1,3.3,0.1,4.8c0,1.7,0,3.8,0,6.4C366.2,367.5,367.3,451,367.4,459.9z"
		/>
	<path class="st1" d="M455.6,349c0,0-1.1,29.6-15.9,48.4c-3,3.8-6.5,7.1-10.6,9.6c-12.8,7.9-49.1,23.2-62.7-31
		c-0.1-0.3-0.1-0.6-0.2-0.9c0,0-2.5-12.3-4.9-25.1c-2.5-13.4-4.8-27.4-3.9-28.6c1-1.5,3.4-9.8,5.5-17.2c1.5-5.2,2.7-9.9,3.3-11.7
		c1.3-4.3,10.6-13.9,10.6-13.9s9,7.7,17.5,16.7c7.1,7.5,13.9,16,14.8,21.6c0,0,15.7-17,28.7-17L455.6,349z"/>
	<path class="st1" d="M186.4,263.6c0,0-74.8-163.9,80.9-164c154.5,0,81.7,169,81.7,169S238.2,305.5,186.4,263.6z"/>
	<path class="st1" d="M385.2,563.4c-0.6,12.6-2,27-5.6,41.2c-3.2,12.6-7.6,22.8-12.7,32.8c-0.6,1.1-1.2,2.3-1.8,3.4l-45.1,1
		c0,0-0.5-1.3-1.4-3.4c-13.5-33.6-21.9-54.4-23.2-57.4c-6.5-15.7-14.1-30.5-22.5-40.3c-0.1-0.1-0.2-0.3-0.4-0.4
		c-2.1-2.5-4.3-4.6-6.5-6.4c-10.2-8.1-2.9-18.2,11.4-28.1c31.2-21.6,66.3-39,90-46c0,0,2.7,18.8,8.6,37.8
		c4.5,14.8,8.8,33.7,9.3,54.3C385.4,555.8,385.3,559.6,385.2,563.4z"/>
	<path class="st2" d="M368,637.5c0,0-4.2,15.3-6.1,17.9c0,0,21.8,6.7,27.4,18.5h-67.4l0.4-18.5l-5.1-16.7
		C317.1,638.7,340,634.7,368,637.5z"/>
	<path class="st2" d="M384.7,676.2c-1.3,0.2-1.9,1.8-3.1,2.3c-2.1,1-4.2-1.6-6.5-1.8s-4.2,2.2-6.5,2.1c-1.8-0.1-3.1-1.6-4.9-1.9
		c-2.4-0.4-4.7,1.7-7.1,1.5c-2-0.2-3.5-2-5.5-2.4c-3.2-0.7-6,2.4-9.2,2.5c-3.1,0.1-6-2.6-9-1.7c-2,0.6-3.8,2.9-5.8,2.1
		c-0.6-0.3-1.1-0.8-1.8-1c-1.1-0.3-2.5,0.5-3.4-1c-0.4-0.6-0.4-1.3-0.3-2c0.1-0.6,0-1.5,0.6-1.9c0.3-0.2,0.7-0.2,1.1-0.2
		c2,0,4.1-0.1,6.1-0.1c1.8,0,3.6,0,5.4,0c2.9,0.1,5.9,0.5,8.8,0.8c9.3,0.7,18.6-0.2,27.9-0.8c4.6-0.3,9.3-0.5,13.9-0.3
		c3.9,0.1,4.6,1.6,4.2,4.8c-0.1,0.7-0.8,1.1-1.4,0.8C387,677.3,386.1,676,384.7,676.2z"/>
	<path class="st3" d="M177.7,379.5l2.4,27.5l15.3-18c0,0-0.3-15.2-1.2-15.2c-0.8,0-16.7,3.5-16.7,3.5L177.7,379.5z"/>
	<path class="st3" d="M382.5,590.3c-0.3,1.9-0.6,3.7-1,5.5c-0.6,3.1-1.3,6-2,8.8c-2.8,1-5.9,1-8.9,1c-7.9,0-15.8-0.5-23.6-1.6
		c-2.4-0.3-5.1-0.9-6.3-3c-0.6-1-0.8-2.2-1.5-3.1c-1.4-1.7-4-1.5-6.2-1.2c-9.6,1.5-19.6,3.9-29.3,4.7c-0.5-1.3-1-2.6-1.5-3.8
		c-0.7-1.8-1.4-3.5-2-5.1c2.3-1.1,6.1-1.2,8-1.6c3.8-0.8,7.3-2.2,11-3.3c8-2.4,16.5-2.8,24.8-3.1c0.2,0,0.5,0,0.7,0
		c11.5-0.5,23.5-0.9,34.1,3.6c1.2,0.5,2.5,1.2,3.6,1.9C382.3,590.2,382.4,590.3,382.5,590.3z"/>
	<path class="st4" d="M384.8,570c-0.1,1.3-0.2,2.5-0.3,3.8c-0.4,5.3-1.2,12.9-2.9,22c-0.3-0.1-0.7-0.1-1-0.2
		c-13.5-2.1-25.7-2.9-36.5-2.8c-18.8,0.1-33.1,2.7-41.9,4.9c-0.7-1.8-1.4-3.5-2-5.1c-1.9-4.6-3.3-8.2-3.9-9.7
		c-0.3-0.6-0.5-1.3-0.8-1.9c11-4.5,30.3-7.2,48.8-8.8c0,0,0,0,0.1,0C360.2,570.9,375.6,570.3,384.8,570z"/>
	<path class="st5" d="M385.2,567.4c0,0,0.1,20.4-7.2,34.1c0,0-10.4,5.2-33.5-0.3c0,0-1.8-30.6,1.4-37.9
		C349.1,556.1,385.2,567.4,385.2,567.4z"/>
	<path class="st4" d="M388.4,552.7c0,0-16.2-4.5-41.4-1c0,0-7,10.3-2.7,21l24.1,10.6l16.7-9.8C385.1,573.5,392.6,564.2,388.4,552.7z
		"/>
	<path class="st1" d="M282.7,529.4c-3.5,2.8-6.9,6.5-10.2,11c-0.1,0.1-0.2,0.2-0.2,0.3c-7,9.6-13.4,22.4-19,35.8
		c-0.8,1.9-5.1,12.6-7.9,19.4c-5.5,13.5-12.4,30.8-15.3,38c-0.9,2.1-1.4,3.4-1.4,3.4l-45.1-1c-0.6-1.1-1.2-2.3-1.8-3.4
		c-5.5-10.7-10.1-21.7-13.4-35.7c-3.1-13.3-4.4-26.8-4.9-38.3c-0.2-3.9-0.2-7.7-0.1-11.4c0.4-13.7,2.3-26.7,5-38.2
		c4.4-19.3,10.7-34.5,14.1-42c1.5-3.3,2.5-5.2,2.5-5.2s5.5,1.8,13.9,5c20.9,7.8,60,23.5,78.5,38.9
		C287.5,514.2,291.3,522.5,282.7,529.4z"/>
	<path class="st3" d="M247.8,589.9c-0.4,1.1-0.9,2.2-1.3,3.3c-0.4,0.9-0.7,1.8-1.1,2.7c-11.8-1.9-23.6-3.8-35.3-5.7
		c-1.2-0.2-2.8-0.3-3.4,0.8c-0.4,0.8-0.2,1.7-0.1,2.6c0.1,2.4-1.6,4.6-3.7,5.8c-2.1,1.2-4.5,1.5-6.9,1.8c-6.4,0.7-12.9,1.1-19.2-0.3
		c-2.8-0.6-5.7-1.9-8.3-3.6c-0.4-1.9-0.9-3.9-1.3-5.9c-0.2-1-0.4-1.9-0.5-2.9c-0.1-0.6-0.2-1.1-0.3-1.7c-0.1-0.8-0.3-1.6-0.4-2.4
		c0-0.1,0-0.2-0.1-0.3c0,0,0,0,0,0c0.1,0,0.1,0,0.2-0.1c5.6-1.9,14.1-2.3,16.6-2.5c7.4-0.7,14.7-1.1,22.1-1c4.5,0,9,0.2,13.4,0.5
		C228.7,581.5,239.7,583.3,247.8,589.9z"/>
	<path class="st2" d="M180.7,632.9c0,0,4.2,15.3,6.1,17.9c0,0-21.8,6.7-27.4,18.5h67.4l-0.4-18.5l5.1-16.7
		C231.6,634.1,208.7,630.1,180.7,632.9z"/>
	<path class="st2" d="M164,671.6c1.3,0.2,1.9,1.8,3.1,2.3c2.1,1,4.2-1.6,6.5-1.8c2.3-0.1,4.2,2.2,6.5,2.1c1.8-0.1,3.1-1.6,4.9-1.9
		c2.4-0.4,4.7,1.7,7.1,1.5c2-0.2,3.5-2,5.4-2.4c3.2-0.7,6,2.4,9.2,2.5c3.1,0.1,6.1-2.6,9-1.7c2,0.6,3.8,2.9,5.8,2.1
		c0.6-0.3,1.1-0.8,1.8-1c1.1-0.3,2.5,0.5,3.4-1c0.4-0.6,0.4-1.3,0.3-2c-0.1-0.6,0-1.5-0.6-1.9c-0.3-0.2-0.7-0.2-1.1-0.2
		c-2,0-4.1-0.1-6.1-0.1c-1.8,0-3.6,0-5.4,0c-2.9,0.1-5.9,0.5-8.8,0.8c-9.3,0.7-18.6-0.2-27.9-0.8c-4.6-0.3-9.3-0.5-13.9-0.3
		c-3.9,0.1-4.6,1.6-4.2,4.8c0.1,0.7,0.8,1.1,1.4,0.8C161.7,672.7,162.6,671.4,164,671.6z"/>
	<path class="st4" d="M253.3,576.4c-0.3,0.6-0.5,1.3-0.8,1.9c-0.7,1.7-2.4,6-4.7,11.5c-0.4,1.1-0.9,2.2-1.3,3.3
		c-8.8-2.2-23.1-4.8-41.9-4.9c-10.8-0.1-23,0.7-36.5,2.8c-0.3,0-0.7,0.1-1,0.2c-1.7-8.9-2.6-16.5-3.2-25.8
		c9.1,0.3,24.6,0.8,40.5,2.2c0,0,0,0,0.1,0C223,569.3,242.3,572,253.3,576.4z"/>
	<path class="st5" d="M163.5,562.8c0,0-0.1,20.4,7.2,34.1c0,0,10.4,5.2,33.6-0.3c0,0,1.8-30.6-1.4-37.9
		C199.6,551.5,163.5,562.8,163.5,562.8z"/>
	<path class="st3" d="M439.8,397.4c-3,3.8-6.5,7.1-10.6,9.6c-12.8,7.9-49.1,23.2-62.7-31c0.1,9,0.2,18.5,0.3,27.6c0,0,0,0,0,0
		c0,1.7,0,3.4,0,5c0,4.4,0.1,8.6,0.1,12.8c-3.4-1.2-9.1-3.9-14.6-9.5c2.4-15.9,4.9-32.6,4.9-32.6l4.1-29.4l1.3-9.1
		c0,0,0.2,0.8,0.5,2.1c0.6,2.6,1.7,7.4,3.2,12.7c2.2,7.8,5,16.7,7.9,21.2C379.9,385.8,390.1,420.6,439.8,397.4z"/>
	<path class="st4" d="M160.3,548.1c0,0,16.2-4.5,41.4-1c0,0,7,10.3,2.7,21l-24.1,10.6l-16.7-9.8
		C163.6,568.9,156.1,559.6,160.3,548.1z"/>
	<path class="st6" d="M363.8,274.5c-0.4,3.2-2.6,6.1-5.9,7.2c-0.2,0-0.4,0.1-0.5,0.2c-7.6,2.4-15,4.4-22.3,6.1
		c-24.1,5.6-46.4,7.6-66,7.6c-24.4,0-44.7-3.1-59.5-6.4c-11.4-2.5-19.4-5.2-23.5-6.6c-1.6-0.6-2.5-0.9-2.8-1.1c-2.5-1-4.3-3.1-5-5.5
		c0.5-0.2,1-0.3,1.3-0.4c0.5-0.1,0.8-0.2,0.8-0.2c6.8-0.7,12.4,0.1,16.8,2c0,0,0,0,0,0l42.8-0.5c8.9,1,18.8,1.6,29.5,1.6
		c11.3,0,23.5-0.7,36.5-2.4l44.5-0.6C354.3,274.4,358.6,274,363.8,274.5z"/>
	<path class="st6" d="M181.6,164.2c0,0,68.8-24,170.2,0c0,0,13.5,47.4-8,88.9c0,0-91.8,12.9-151.3-2.2
		C192.5,250.9,172.4,208.1,181.6,164.2z"/>
	<path class="st3" d="M366.8,408.7c0,4.4,0.1,8.6,0.1,12.8c-3.4-1.2-9.1-3.9-14.6-9.5c-8.3-8.4-16.2-23.4-14.9-49.9
		c-14.1-1.4-78.7-6.4-127.3,1.1c2.2,44.7-20.8,56.5-28.9,59.2c-0.2-3.7-0.5-7.6-0.9-11.7c7.1-14.5,7.9-34.2,5.9-54.1
		c-2.6-25.7-9.9-51.7-14.9-67.2c-1.3-4.2-2.5-7.6-3.4-10c5.7-2.1,9.9-3.4,11.5-3.9c4.5,2.3,8,5.6,8,5.6c0.1,0.2,0.1,0.4,0.2,0.6
		c8.6,24.5,13.6,44.9,16.2,61.9c0.8-0.1,1.8-0.2,2.9-0.3c20.1-2,81.8-7,131-0.3c2.1,0.3,4.2,0.6,6.2,0.9
		c2.4-15.9,6.9-34.8,14.6-57.4c0.6-1.8,1.2-3.6,1.9-5.4c0,0,3.3-3.2,7.6-5.2c2.6,0.9,6.3,2.1,10.8,3.8c-2.5,7.3-8.4,25.3-12.8,46.5
		c-1.1,5.4-2.1,11-3,16.7c-0.8,5.1-1.4,10.3-1.8,15.4C359.8,376.7,360.7,394.8,366.8,408.7z"/>
	<path class="st4" d="M376.8,278.5c-8.1-6.4-16.6-4.2-16.6-4.2c-8.8,25-13.9,45.6-16.4,62.8c-52.7-8.4-123.3-2-140.2-0.3
		c-2.6-17.1-7.6-37.6-16.4-62.5c0,0-8.5-2.1-16.6,4.2c0,0,30.9,82.2,9.2,125.8c0,0-3.7,5.7,1.1,13.6c0,0,27.3-8.4,24.6-62.6
		c48.6-7.5,122.3-1,136.4,0.4c-2.5,53.8,24.6,62.2,24.6,62.2c4.7-7.8,1.1-13.6,1.1-13.6C345.9,360.8,376.8,278.5,376.8,278.5z"/>
	
		<linearGradient id="SVGID_1_" gradientUnits="userSpaceOnUse" x1="179.4542" y1="480.2243" x2="355.3051" y2="480.2243" gradientTransform="matrix(1 0 0 -1 0 680)">
		<stop  offset="0" style="stop-color:#00C5D5"/>
		<stop  offset="1" style="stop-color:#A769FF"/>
	</linearGradient>
	<path class="st7" d="M181.6,157.1c0,0,70.8-25.4,170.2,0c0,0,12.1,47.3-9,91.3c0,0-89.9,13.7-148.3-2.4
		C194.6,246,172.6,203.5,181.6,157.1z"/>
	<g>
		<path class="st2" d="M269,290.6c-50.4,0-83.7-13.2-85.7-14c-4.4-1.8-6.4-6.7-4.7-11.1c1.8-4.3,6.7-6.4,11.1-4.7l0,0
			c0.7,0.3,72.3,28.4,163.1-0.2c4.5-1.4,9.3,1.1,10.7,5.5c1.4,4.5-1.1,9.3-5.5,10.7C325,287.1,294.8,290.6,269,290.6z"/>
	</g>
	<g>
		<path class="st8" d="M166.7,176.6l-2.2,0.2c-1.6,0.1-3-1-3.1-2.6l-1.5-15.4c-0.1-1.6,1-3,2.6-3.1l2.2-0.2c1.6-0.1,3,1,3.1,2.6
			l1.5,15.4C169.4,175.1,168.3,176.5,166.7,176.6z"/>
		<path class="st9" d="M170.6,231.3L170.6,231.3c-3.8,0.4-7.2-2.4-7.5-6.2l-4.7-49.3c-0.4-3.8,2.4-7.2,6.2-7.5l0,0
			c3.8-0.4,7.2,2.4,7.5,6.2l4.7,49.3C177.2,227.5,174.4,230.9,170.6,231.3z"/>
	</g>
	<g>
		<path class="st8" d="M369.4,174.9l2.2,0.2c1.6,0.1,3-1,3.1-2.6l1.5-15.4c0.1-1.6-1-3-2.6-3.1l-2.2-0.2c-1.6-0.1-3,1-3.1,2.6
			l-1.5,15.4C366.6,173.4,367.8,174.8,369.4,174.9z"/>
		<path class="st9" d="M365.5,229.6L365.5,229.6c3.8,0.4,7.2-2.4,7.5-6.2l4.7-49.3c0.4-3.8-2.4-7.2-6.2-7.5l0,0
			c-3.8-0.4-7.2,2.4-7.5,6.2l-4.7,49.3C358.9,225.8,361.7,229.2,365.5,229.6z"/>
	</g>
	<path class="st10" d="M305.7,392.8c0,6.3-5.1,11.5-11.5,11.5c-5.6,0-10.3-4.1-11.3-9.4c-0.1-0.7-0.2-1.3-0.2-2
		c0-6.3,5.1-11.5,11.5-11.5c4.5,0,8.4,2.6,10.3,6.3C305.2,389.2,305.7,391,305.7,392.8z"/>
	<path class="st11" d="M337.5,392.8c0,6.3-5.1,11.5-11.5,11.5c-5.6,0-10.4-4.1-11.3-9.5c-0.1-0.6-0.2-1.3-0.2-2
		c0-6.3,5.1-11.5,11.5-11.5c4.5,0,8.4,2.6,10.3,6.3C337,389.2,337.5,391,337.5,392.8z"/>
	<path class="st10" d="M266,387.1v44.3c0,3.2-2.6,5.7-5.7,5.7h-44.3c-3.1,0-5.6-2.5-5.7-5.5c0-0.1,0-0.1,0-0.2v-44.3
		c0-3.2,2.6-5.7,5.7-5.7h44.3c1.9,0,3.6,1,4.7,2.4C265.6,384.7,266,385.9,266,387.1z"/>
	<path class="st5" d="M304.6,389.7c0,6.3-5.1,11.5-11.5,11.5c-4.5,0-8.4-2.6-10.3-6.3c-0.1-0.7-0.2-1.3-0.2-2
		c0-6.3,5.1-11.5,11.5-11.5c4.5,0,8.4,2.6,10.3,6.3C304.6,388.3,304.6,389,304.6,389.7z"/>
	<path class="st12" d="M336.4,389.7c0,6.3-5.1,11.5-11.5,11.5c-4.5,0-8.4-2.6-10.3-6.3c-0.1-0.6-0.2-1.3-0.2-2
		c0-6.3,5.1-11.5,11.5-11.5c4.5,0,8.4,2.6,10.3,6.3C336.3,388.3,336.4,389,336.4,389.7z"/>
	<path class="st5" d="M264.9,384v44.3c0,3.2-2.6,5.7-5.7,5.7h-44.3c-1.9,0-3.6-1-4.7-2.4c0-0.1,0-0.1,0-0.2v-44.3
		c0-3.2,2.6-5.7,5.7-5.7h44.3c1.9,0,3.6,1,4.7,2.4C264.9,383.8,264.9,383.9,264.9,384z"/>
	<path class="st12" d="M216.5,397.2L216.5,397.2c-1.1,0-1.9-0.9-1.9-1.9v-8c0-1,0.9-1.9,1.9-1.9l0,0c1.1,0,1.9,0.9,1.9,1.9v8
		C218.4,396.4,217.6,397.2,216.5,397.2z"/>
	<path class="st13" d="M224.2,397.2L224.2,397.2c-1.1,0-1.9-0.9-1.9-1.9v-8c0-1,0.9-1.9,1.9-1.9l0,0c1.1,0,1.9,0.9,1.9,1.9v8
		C226.1,396.4,225.2,397.2,224.2,397.2z"/>
	<path class="st14" d="M258.4,397.4L258.4,397.4c-1,0-1.9-0.9-1.9-1.9v-8c0-1,0.9-1.9,1.9-1.9l0,0c1,0,1.9,0.9,1.9,1.9v8
		C260.3,396.5,259.4,397.4,258.4,397.4z"/>
	<path class="st3" d="M309.5,455.5c4.4-1.2,8.8-2.4,13.3-3c1.8-0.3,2.6,2.1,1,3c-13.3,6.9-28.4,10.6-41.4,18c-1.4,0.8-0.8,3,0.9,2.9
		l19.6-0.9c5.4-0.2,10.8-0.5,16.2-0.4c1.9,0,2.1,2.8,0.3,3.1c0,0-0.1,0-0.1,0c-18.4,3.3-36.9,6.6-55.3,9.9c-0.8,0.1-1.8,0.3-2.5-0.3
		c-0.7-0.6-0.7-1.7-0.3-2.5c0.4-0.8,1.2-1.3,1.9-1.9c2-1.4,4.1-2.9,5.9-4.7c1.1-1.1,0-3-1.5-2.6c-4.8,1.3-9.3,3.6-14,5.3
		c-3.6,1.3-7.3,2.1-11,3c-3.2,0.7-6.3,1.5-9.5,2.2c-3.2,0.8-7,1.3-9.2-1.8c-1-1.4-1.4-3-0.2-4.3c2.4-2.6,10.4-1.5,13.6-1.9
		c15.3-2,30.7-9.3,45.2-14.3C291.4,461.1,300.4,458.1,309.5,455.5z"/>
	
		<linearGradient id="SVGID_2_" gradientUnits="userSpaceOnUse" x1="192.6689" y1="474.7459" x2="487.4512" y2="522.2241" gradientTransform="matrix(1 0 0 -1 0 680)">
		<stop  offset="0" style="stop-color:#00C5D5"/>
		<stop  offset="1" style="stop-color:#A970CB"/>
	</linearGradient>
	<path class="st15" d="M194.4,224.4c1.6,5,3.6,10.1,7.1,14.1c0.9,1.1,2.3,2.1,3.6,1.6c0.9-0.3,1.4-1.2,1.9-2
		c4.4-6.5,13.1-7.9,20.9-8.7c32.8-3.5,66.1-7,98.6-1.3c1.5,0.3,3.1,0.6,4.5,0.1c1.2-0.4,2.3-1.3,3.2-2.1c7.8-7.4,11.9-18,13.3-28.6
		s0.4-21.4-1-32.1c-0.4-3.1-2.1-7.2-5.2-6.6c-1.8,0.4-2.8,2.3-3.9,3.8c-3.9,5.7-11.6,7.6-18.5,7.1c-6.9-0.5-13.5-2.8-20.4-3.7
		c-9.2-1.2-18.5,0.2-27.8,0.2c-25.1,0.1-49.5-9.5-74.6-6.7c-6.2,0.7-9.3,0.4-10.6,6.5c-1.2,6,0.1,13.7,0.7,19.8
		C187.6,198.9,190.3,211.9,194.4,224.4z"/>
	
		<linearGradient id="SVGID_3_" gradientUnits="userSpaceOnUse" x1="260.051" y1="487.3323" x2="323.7031" y2="505.0714" gradientTransform="matrix(1 0 0 -1 0 680)">
		<stop  offset="0" style="stop-color:#00C5D5"/>
		<stop  offset="1" style="stop-color:#00F0F3"/>
	</linearGradient>
	<path class="st16" d="M315.2,160.5c4.1,0.2,8.2,0.3,12,2c7,3.1,11.1,10.8,12.2,18.4c1.1,7.6-0.1,15.4-0.6,23
		c-0.2,3.6-0.4,7.6-2.9,10.3c-3.6,3.9-10.3,3-14.5-0.2c-4.3-3.2-7-8-10.4-12c-4.7-5.4-10.9-9.6-17.7-11.8c-6-1.9-12.4-2.4-18.7-2.6
		c-10.1-0.3-20.2,0.1-30.3,1.2c-7.2,0.8-14.4,1.9-21.6,1.3c-8.7-0.7-19.7-4.5-22.8-13.6c-2.7-7.6,3-12.1,9.8-14
		c10.2-2.8,21.8-2.6,32.3-3.1c11.7-0.5,23.3-0.6,35-0.4C289.6,159.5,302.5,160,315.2,160.5z"/>
	<path class="st17" d="M316.9,193.6c-0.1,2.4-0.4,4.8,0.4,7.1c0.7,2.3,2.6,4.4,5,4.5c1.6,0.1,3.2-0.9,4.4-2c2.3-2.3,3.5-5.6,4.2-8.8
		c0.9-4.4,1.2-8.9,0.7-13.4c-0.5-4.9-2.1-10.2-6.3-13.1c-2.5-1.8-6.4-3.1-8.4,0c-1.7,2.6-1,7-0.7,9.9
		C316.6,183.1,317.2,188.3,316.9,193.6z"/>
	<path class="st17" d="M316.5,232.1c1.8,1.4,4.2,2,6.4,1.7c2.3-0.3,4.3-1.5,6-3.1c2.1-2.1,3.5-5.2,3.4-8.2c-0.2-6.4-8-11.7-13.6-7.3
		C314,218.8,311.3,227.8,316.5,232.1z"/>
	<path class="st17" d="M212.5,114.8c-8.8,4.9-16.8,11.8-21.6,20.6c-0.6,1-1.1,2.3-0.6,3.4c0.3,0.7,1,1.1,1.7,1.4
		c2.7,1,5.7,0.3,8.4-0.4c16.6-4.2,33.3-8.5,48.7-16.1c3-1.5,6.1-3.2,8.2-5.8c7.6-9.4-5.1-17.6-13.9-15.9
		C233.4,103.9,221.3,109.9,212.5,114.8z"/>
	<path class="st18" d="M257.5,431h-41c-2.1,0-3.7-1.7-3.7-3.7v-18.6c0-2.1,1.7-3.7,3.7-3.7h41c2.1,0,3.7,1.7,3.7,3.7v18.6
		C261.2,429.4,259.5,431,257.5,431z"/>
	<path class="st4" d="M423.8,310.3c-4.4,15.3-1.2,32.6,8.4,45.4c4.3,5.6,10.3,10.6,17.3,11c2.1,0.1,4.2-0.2,6-1.1
		c2.7-1.3,4.7-3.8,6.3-6.4c8.1-13.3,7.3-30.8-0.1-44.5c-4.6-8.6-10.7-12.7-20-15C432.7,297.4,426.5,300.9,423.8,310.3z"/>
	<path class="st5" d="M7.1,170.5c-0.2-1.9-0.3-4,0.6-5.7c0.6-1.1,1.7-2,2.7-2.7c6.6-4.8,14.5-7.9,22.6-8.9c0.7-0.1,1.3-0.1,2,0.1
		c1.5,0.5,2.1,2.2,2.5,3.6c2.7,9.5,5,19.2,6.7,28.9c2.1-0.7,2.3-3.5,2.3-5.7c-0.3-8.2-0.1-16.3,0.5-24.5c0.1-1,0.2-2.1,1-2.8
		c0.5-0.5,1.3-0.6,2-0.8c2.3-0.4,4.9-0.7,6.7,0.7c1.4,1.2,1.9,3.1,2.2,4.9c1.3,6.9,2.2,14,2.6,21.1c0.2,3.6,0.3,7.3,0.9,10.9
		c0.1,0.5,0.2,1.1,0.6,1.3c0.6,0.4,1.5,0,2.1-0.5c3.7-2.6,7.4-5.2,11.1-7.9c0.5-0.4,1.1-0.7,1.7-0.7s1.2,0.4,1.6,0.8
		c3,2.5,6.3,5.8,5.7,9.6c-0.3,1.6-1.2,3-2.2,4.2c-4.2,5-10.6,8.9-11.7,15.4c-0.3,1.7-0.2,3.5-0.9,5.1c-0.8,1.8-2.7,2.9-4.5,3.7
		c-3.7,1.6-7.7,2.5-11.7,3.3c-6.7,1.2-13.5,2-20.3,2.4c-4.3,0.2-9.4,0.5-13.5-1.2c-3.2-1.3-3.5-6.3-4.4-9.2
		c-2.7-9.5-4.9-19.1-6.6-28.8C8.4,181.6,7.7,176.1,7.1,170.5z"/>
	<path class="st1" d="M184.1,377.4c0,0-75.7,18.5-127-31.5c-15.5-15.1-25.3-32.9-31.3-50.4c-6.6-19.2-8.8-37.9-9.3-52.3
		c-0.2-7.3,0-13.5,0.3-18.1c0.3-5.3,0.6-6.4,0.6-6.4l51.2-5.2c0,0,0.9,2.5,2.4,6.5v0c1.8,4.5,4.3,10.9,7.5,18.1
		c5.3,12.1,12.3,26,19.5,35.8c15.3,20.7,70,5.5,70,5.5c12.9,26.9,15.4,69.4,15.9,88.4C184.2,373.8,184.1,377.4,184.1,377.4z"/>
	<path class="st8" d="M448.1,296.6c0,0-19.4-4.5-20.7,28c-0.8,20.5,10.3,31.9,22.8,30.8c22.7-2,18.5-40.3,18.5-40.3s0.7-10-2.7-11.3
		C462.7,302.3,448.1,296.6,448.1,296.6z"/>
	<path class="st3" d="M78.6,238.1c-1.9,0.5-3.7,0.9-5.6,1.3c-6,1.1-12.1,1.4-18.3,1.7c-12.6,0.7-25.5,2-38.2,2.1
		c-0.2-7.3,0-13.5,0.3-18.1c2.4-0.3,4.9-0.4,7.3-0.6c11.4-0.9,22.6-4.3,34.1-5.1c4.3-0.3,8.6-0.1,12.9,0.6v0
		C72.8,224.6,75.4,231,78.6,238.1z"/>
	<path class="st3" d="M187,378c0,0-78.5,17.9-129.8-32.1c-15.5-15.1-25.3-32.9-31.3-50.4v0c0,0,47.5,84.6,161.8,71.2
		C187.8,372.7,187,378,187,378z"/>
	<rect x="445.1" y="7.8" class="st2" width="9" height="665.9"/>
	<path class="st5" d="M443,314.3c4.3-1.3,7.2-2.4,11.1-4.7c0,2.7,1,2.1-1.1,3.8c-2.2,1.6-10.1,3.4-12.2,5.2
		c-3.9,3.3-2,10.1-2.2,15.2c-0.2,5.1,1,10.1,2.3,15c0.3,1,0.6,2.1,1.5,2.7c0.7,0.5,1.7,0.5,2.6,0.5c2.8,0,5.6,0,8.4,0
		c2.5,0,5,0,7.2-1c5.1-2.3,6.7-8.6,7.6-14.2c0.8-5.6,1.5-11.3,1.9-17c0.8-10.3-0.6-29.4-14.6-29.5c-7.7,0-15.5,2.8-18.4,7.5
		c-2.2,3.5-1.5,8.1-0.2,13C437.6,313.6,440.4,315.1,443,314.3z"/>
	<path class="st4" d="M72.3,212.9c0,0-40.3-8.1-57.2,6.9c0,0-2.2,10.9-0.3,16.2l59.9-8.2C74.7,227.8,76.3,221.6,72.3,212.9z"/>
	<path class="st3" d="M409.1,316.7c0,0-13.5,21.2-17.5,38.6c0,0-4.7-42,2.7-60.2C401.5,302.7,408.2,311.1,409.1,316.7z"/>
	
		<linearGradient id="SVGID_4_" gradientUnits="userSpaceOnUse" x1="606.7972" y1="594.9612" x2="461.7972" y2="585.4612" gradientTransform="matrix(1 0 0 -1 0 680)">
		<stop  offset="0" style="stop-color:#00C5D5"/>
		<stop  offset="1" style="stop-color:#A769FF"/>
	</linearGradient>
	<path class="st19" d="M453,24.7c0,0,27.5-25.1,106.2-16.9s43.3,32.2,113.3,28.9c0,0-21.4,39.7-15.3,65c11.7,48.7,1.3,64.4,1.3,64.4
		s-49,0-75.7-10.8c-23.1-9.3-69.3-31.8-129.8-9.6L453,24.7L453,24.7z"/>
</g>
<path class="st8" d="M15.1,219.8c0.1-0.4,0.4-1,0.7-1.3c1.8-1.4,2.7-2.5,7.2-4.1c22.6-8.3,47.4-5.5,49.5-1.2
	c0.4,0.8-0.1,1.1-0.6,1.6c-2.8,3.4-9.1,0.9-18.1,0.3c-8.5-0.5-16.1-1-22.7,3.1c-2.5,1.5-5.8,4.3-11,4.9c-1.5,0.2-5.4,0.6-5.4-1.1
	C14.8,221.1,14.9,221.1,15.1,219.8z"/>
</svg>
