<?xml version="1.0" encoding="utf-8"?>
<!-- Generator: Adobe Illustrator 23.0.1, SVG Export Plug-In . SVG Version: 6.00 Build 0)  -->
<svg version="1.1" id="Layer_1" xmlns="http://www.w3.org/2000/svg" xmlns:xlink="http://www.w3.org/1999/xlink" x="0px" y="0px"
	 viewBox="0 0 680 680" style="enable-background:new 0 0 680 680;" xml:space="preserve">
<style type="text/css">
	.st0{fill:#A769FF;}
	.st1{fill:#825BDC;}
	.st2{fill:#75CAFF;}
	.st3{fill:#DDFFFF;}
	.st4{fill:#2D7BFF;}
	.st5{fill:url(#SVGID_1_);}
	.st6{fill:#00C5D5;}
	.st7{fill:#009DD0;}
	.st8{fill:#004FA1;}
	.st9{fill:#30261A;}
	.st10{fill:url(#SVGID_2_);}
	.st11{fill:#FFFFFF;}
	.st12{fill:#354E6F;}
	.st13{fill:#353F69;}
	.st14{fill:#009FD6;}
	.st15{fill:#EB3854;}
	.st16{fill:#E9747F;}
	.st17{fill:#E1909C;}
	.st18{fill:#83C451;}
	.st19{fill:#487CBE;}
	.st20{fill:#0090B9;}
	.st21{fill:url(#SVGID_3_);}
	.st22{fill:#00B4DE;}
	.st23{fill:url(#SVGID_4_);}
	.st24{fill:#006699;}
</style>
<g>
	<path class="st0" d="M552.9,588.5c0,0-14.3,2.3-33.3,1.5c-19.4-0.8-43.7-4.8-62.4-17.8c-37-25.8,90.1-251.9,90.1-251.9
		s18.8,1.9,39.8,10.3c10.3,4.1,21.1,9.7,30.5,17.3c0,0,16.6,43.1,1.2,109.4c-4.7,20-12.3,42.1-24.1,65.8
		C584.4,543.8,570.7,565.8,552.9,588.5z"/>
	<path class="st1" d="M594.7,523.1c-2.1,2-4.2,3.9-6.4,5.7c-7.7,6.7-15.7,13.1-24.3,18.6c-16.9,10.8-37.7,20.2-43.6,39.4
		c-0.3,1.1-0.6,2.2-0.9,3.3c-19.4-0.8-43.7-4.8-62.4-17.8c-37-25.8,90.1-251.9,90.1-251.9s18.8,1.9,39.8,10.3
		c-0.2,9.6-1.3,19.2-0.1,25.7c1.8,9.9,7.9,18.3,12.6,27.2c8.4,15.7,12.9,33.3,16.2,50.8c1.4,7.5,2.5,15.2,3,23
		C614.2,477.3,606.6,499.4,594.7,523.1z"/>
	<g>
		<path class="st2" d="M548.8,345.6c-14.4,2.4-85.7-14.8-126.3-81.1c0,0-2.7-10.8-2.2-27.2c0,0,0,0,0,0c0.8-23.9,8.4-59.6,41-91.2
			c55-53.4,140.8,12.9,156.4,32.8c7.5,9.6,16,24.4,19.5,42.1c0,0,0,0,0,0c3.7,18.9,1.9,41.2-12.7,64.5
			C596.4,330.6,563.1,343.2,548.8,345.6z"/>
		<path class="st3" d="M547.3,322.2c-12.9,2.1-71.7-11.5-112.9-62.2c-4.7-5.8-9.2-12.1-13.4-18.9c0,0-0.3-1.4-0.7-3.9c0,0,0,0,0,0
			c0.8-23.9,8.4-59.6,41-91.2c3.1-3,6.3-5.6,9.5-7.9c54.9-38.3,132.2,21.9,146.9,40.7c7.5,9.6,16,24.4,19.5,42.1c0,0,0,0,0,0
			c-1,13-5.2,26.9-14.1,41.1C595,307.2,561.7,319.8,547.3,322.2z"/>
		<path class="st4" d="M551.6,312.1c-47.7,5.4-92.4-28.4-117.2-52.1c-4.7-5.8-9.2-12.1-13.4-18.9c0,0-0.3-1.4-0.7-3.9c0,0,0,0,0,0
			c0.8-23.9,8.4-59.6,41-91.2c3.1-3,6.3-5.6,9.5-7.9c66.2,20.8,136.3,101.1,136.3,101.1C576,303.2,551.6,312.1,551.6,312.1z"/>
		
			<linearGradient id="SVGID_1_" gradientUnits="userSpaceOnUse" x1="-367.9175" y1="794.9947" x2="-256.9981" y2="895.481" gradientTransform="matrix(0.7667 0.642 0.642 -0.7667 222.3362 1071.3951)">
			<stop  offset="0" style="stop-color:#00C5D5"/>
			<stop  offset="1" style="stop-color:#A769FF"/>
		</linearGradient>
		<path class="st5" d="M549.1,307.5c-36.1,2.7-71.2-18.1-96.3-38.3c-22.4-18-36.8-35.6-36.8-35.6c-8.1-52.6,43-94,43-94
			c15.5,4.3,31.6,12.3,47,22c49.6,31.1,93,79.7,93,79.7C571.9,300,549.1,307.5,549.1,307.5z"/>
		<path class="st6" d="M522.2,288.7c-24.5,1.8-48.6-7.2-69.4-19.5c-22.4-18-36.8-35.6-36.8-35.6c-8.1-52.6,43-94,43-94
			c15.5,4.3,31.6,12.3,47,22c37.4,28.7,66.1,60.9,66.1,60.9C545,281.2,522.2,288.7,522.2,288.7z"/>
		<path class="st2" d="M576.6,283.3c0,0-13.6,13.3-3.8,30.4c9.8,17.1,27.3-8.6,27.3-8.6L576.6,283.3z"/>
		<g>
			<path class="st7" d="M609.2,265.3l1.1,1.4c0.9,1.1,2.5,1.4,3.7,0.5l13-10.1c1.1-0.9,1.4-2.5,0.5-3.7l-1.1-1.4
				c-0.9-1.1-2.5-1.4-3.7-0.5l-13,10.1C608.6,262.5,608.3,264.1,609.2,265.3z"/>
			<path class="st7" d="M605.3,291.7c6.6-7.9,10.8-16.2,11.9-22.9l4.3-5.1l-6.7-5.6c-6-5-20,1.8-31.3,15.3
				C572.2,287,567.9,302,574,307l6.7,5.6l4.3-5.1C591.2,305.2,598.7,299.6,605.3,291.7z"/>
			<polygon class="st7" points="625.8,251.4 633.9,258.9 622.3,268.4 614.8,260.2 			"/>
			
				<ellipse transform="matrix(0.642 -0.7667 0.7667 0.642 -5.794 564.0245)" class="st8" cx="601.1" cy="288.2" rx="31.8" ry="14.2"/>
			<path class="st7" d="M607.7,291.9c-6.4,7.7-13.6,12.3-16,10.3c-0.9-0.8-1-2.4-0.4-4.6c1-3.4,3.8-8.2,7.7-12.9
				c3.9-4.7,8.2-8.3,11.4-9.9c2-1,3.7-1.2,4.6-0.5C617.5,276.4,614.2,284.3,607.7,291.9z"/>
			<path class="st9" d="M602.8,287.8c-3.9,4.7-8.2,8.3-11.4,9.9c1-3.4,3.8-8.2,7.7-12.9c3.9-4.7,8.2-8.3,11.4-9.9
				C609.5,278.3,606.7,283.1,602.8,287.8z"/>
			<path class="st8" d="M617.2,272.6l1.1,1.4c0.9,1.1,2.5,1.4,3.7,0.5l11.7-9.6c1.1-0.9,2.7-3.1,1.8-4.2l-1.1-1.4
				c-0.9-1.1-2.5-1.4-3.7-0.5l-13,10.1C616.5,269.8,616.3,271.5,617.2,272.6z"/>
		</g>
		
			<linearGradient id="SVGID_2_" gradientUnits="userSpaceOnUse" x1="-321.7449" y1="830.1704" x2="-459.7063" y2="812.462" gradientTransform="matrix(0.7667 0.642 0.642 -0.7667 222.3362 1071.3951)">
			<stop  offset="0" style="stop-color:#00C5D5"/>
			<stop  offset="1" style="stop-color:#00F0F3"/>
		</linearGradient>
		<path class="st10" d="M424.9,209.1c-0.7,5.9-0.7,12,1.2,17.6c1.2,3.7,3.9,7.6,7.8,7.8c2.6,0.2,5.1-1.4,6.7-3.5
			c1.6-2.1,2.5-4.6,3.5-7c2.4-5.9,5.4-11.8,10.3-15.8c6.6-5.3,15.8-6.5,24.1-4.8c8.3,1.7,15.9,5.8,23.1,10.3
			c7.2,4.4,14.3,9.2,22.1,12.4c3.3,1.3,6.8,2.4,10.3,3.1c2.8,0.6,5.9,0.9,8.5-0.3c3.2-1.4,5.2-5,5.5-8.5c0.3-3.5-0.8-7-2.4-10.2
			c-3.5-7.3-9.2-13.4-15.1-18.9c-17.1-15.9-37.2-28.2-58.5-37.7c-5.9-2.6-12.6-7.2-18.4-2c-7.4,6.7-13.4,16.5-18.1,25.1
			C430.2,186.6,426.3,197.6,424.9,209.1z"/>
		<path class="st11" d="M443.5,176.2c-0.3,1.5-0.5,3.1,0.1,4.5c0.6,1.4,2.3,2.5,3.7,1.9c0.7-0.3,1.2-0.9,1.7-1.5
			c2.2-2.7,4.8-5.3,8-6.8c1.7-0.8,3.6-1.3,5.3-2.1s3.4-2,4-3.8c0.6-1.6,0.3-3.5-0.5-5c-2.3-4.2-8.2-8-12.5-4.7
			C448.1,162.7,444.7,170,443.5,176.2z"/>
		<path class="st11" d="M437.1,198.5c1.1,1.4,3.4,1.4,4.8,0.4c1.5-1,2.3-2.8,2.7-4.5c0.8-2.9,0.2-10.1-4.4-7.3
			C437.5,188.7,434.9,195.7,437.1,198.5z"/>
		<path class="st11" d="M530.2,133.9c12.4,2.2,24.5,6,35.9,11.2c1.2,0.6,2.5,1.3,2.7,2.6c0.2,1.3-1,2.5-2.3,2.8
			c-1.3,0.3-2.6-0.1-3.9-0.5c-12-3.5-24.4-6.6-36.8-5.1c-4.8,0.6-9.6,1.8-14.4,2.1c-6.2,0.4-29.6-3.9-15-11.4
			C506.2,130.6,519.9,132.1,530.2,133.9z"/>
	</g>
	<path class="st3" d="M369.3,369.2c-17.8,2.4-143.8-113.7-143.8-113.7c9.9-28.3,43.3-42.4,43.3-42.4l47.7,44.2l0,0l3,2.8l2.4,2.2
		l7.4,1.5l5.1,1.1l56.5,11.7l27.2,5.6c2.3,2.8,4.3,5.5,6,8.1C453.8,335.3,411.7,363.4,369.3,369.2z"/>
	<path class="st3" d="M570.5,386.2c-3.7,35.8-14.8,68.9-28.5,97c-5.9,12.1-12.2,23.2-18.7,33.3c-4.4,6.8-8.7,13.1-13.1,18.9
		c-14.2,19-27.4,31.9-35.2,36.8c-8.2,5.2-21.1,5.9-35.8,3.8c-6.9-1-14.2-2.5-21.5-4.6c-20.8-5.7-42.4-15-58-24.1
		c-3.7-2.2-7.1-4.3-10.1-6.4c-3.2-2.3-6.1-5.1-8.7-8.4c-17.1-21.4-21.9-61.3-23.2-76.1c-0.3-3.6-0.4-5.6-0.4-5.6
		c1.2-3.2,2.4-6.4,3.6-9.6c32.9-86.3,66.7-142.4,81.9-161.2c3.4-4.2,5.3-6.4,5.3-6.4c65.8,79.4,162.4,63.1,162.4,63.1
		c0.3,2.9,0.5,5.8,0.7,8.6C572.2,359.4,571.8,373,570.5,386.2z"/>
	<path class="st4" d="M571.2,345.5c-0.6,0.3-1.2,0.5-1.9,0.6c-35.5,6.9-72.4,1.1-107.3-16.9c-3.6-1.9-7.2-3.8-10.8-5.9
		c-28.6-16.9-45.5-35.9-46.2-36.7c-1.6-1.8-2.4-4.1-2.2-6.4c3.4-4.2,5.3-6.4,5.3-6.4c65.8,79.4,162.4,63.1,162.4,63.1
		C570.8,339.7,571,342.6,571.2,345.5z"/>
	<path class="st2" d="M388.7,343.4c-0.7,0.4-10.1,13.1-19.5,25.8c-17.8,2.4-35.6,0.9-48.2-4.9c-3.7-1.7-8.2-3.9-20.9-16.2
		c0.6-1,1.1-2,1.6-3c3-5.9,5.9-11.8,8.7-17.8h0c24.4,7.8,61.6,7.4,83.8-27.6C416.5,264.8,390.1,342.7,388.7,343.4z"/>
	<path class="st12" d="M327.1,425.5c-1.7-11.1,7.4-18.1,7.4-18.1c24.3-14.7,32.3-41.6,44-66.3c2.4-5,4.5-9.9,6.5-14.7
		c10.9-27,15.2-49.4,15.2-49.4c5.4-3,16.3-4.2,16.3-4.2l-2,12.1c-4,20.3-8.9,37.6-14.4,52.3c-2,5.4-4.1,10.4-6.3,15.2
		C362.6,420.8,327.1,425.5,327.1,425.5z"/>
	<path class="st12" d="M490.1,405c-4.6-1.7-9.7-3.6-15.3-6c-20.8-8.9-48.2-23.3-81-46.6c-5-3.5-10.1-7.3-15.3-11.2
		c2.4-5,4.5-9.9,6.5-14.7c4.2,3.3,9.2,6.9,15.1,10.8c18.2,12,45.2,26.8,85.3,43.5c4.9,2,10,4.1,15.2,6.2
		C496.2,392.5,492.7,398.6,490.1,405z"/>
	<g>
		<path class="st13" d="M463.1,323.6c-3.5-2.1-6.9-4.3-10.4-6.6c-27.4-18.7-43.1-38.8-43.7-39.6c-3.1-4-2.3-9.6,1.6-12.6
			s9.6-2.2,12.7,1.7l0,0c0.1,0.2,14.9,18.9,40,36c33.2,22.4,67.9,31.5,103.3,27c4.9-0.6,9.5,2.8,10.2,7.8c0.7,4.9-2.7,9.4-7.7,10.1
			C533.3,351.9,496.8,343.7,463.1,323.6z"/>
	</g>
	<path class="st8" d="M444.2,406.4c-2.9,5.6-8.8,8.3-13.3,6c-1-0.5-1.9-1.3-2.6-2.2c-2.3-3-2.5-7.8-0.3-12.1c2.7-5.3,8.2-8,12.6-6.3
		c0.2,0.1,0.4,0.2,0.7,0.3C445.8,394.4,447.1,400.8,444.2,406.4z"/>
	<path class="st14" d="M440.9,403.9c-2.7,5.3-8.2,8-12.6,6.3c-2.3-3-2.5-7.8-0.3-12.1c2.7-5.3,8.2-8,12.6-6.3
		C442.9,394.9,443.1,399.6,440.9,403.9z"/>
	<path class="st15" d="M464.1,416.6c-2.9,5.6-8.8,8.3-13.3,6c-1-0.5-1.9-1.3-2.6-2.2c-2.3-3-2.5-7.8-0.3-12.1
		c2.7-5.3,8.2-8,12.6-6.3c0.2,0.1,0.4,0.2,0.7,0.3C465.7,404.6,467,411,464.1,416.6z"/>
	<path class="st16" d="M460.8,414.1c-2.7,5.3-8.2,8-12.6,6.3c-2.3-3-2.5-7.8-0.3-12.1c2.7-5.3,8.2-8,12.6-6.3
		C462.8,405.1,463.1,409.8,460.8,414.1z"/>
	<path class="st8" d="M402.4,427.7c0,0-27-11.6-36.1-21.3c0,0,0.7-1.3,2-3.5c4.9-8.5,17.7-30.6,23.8-40.7c0,0,18.8,13.3,31.7,20.7
		c1.5,0.9,2.9,1.6,4.2,2.3C428,385.3,409.5,411.6,402.4,427.7z"/>
	<path class="st14" d="M401.1,421.3c0,0-21.7-9.4-32.8-18.3c4.9-8.5,17.7-30.6,23.8-40.7c0,0,18.8,13.3,31.7,20.7
		C418.3,391.1,406.4,409,401.1,421.3z"/>
	<g>
		<path class="st3" d="M331.3,546.6L331.3,546.6c-7.4,8.5-15.9,14.1-23.6,15.4l-3.8-12.8c0,0,0,0,0,0c0,0,0,0-0.1,0
			c-0.9,0.2-7.5,2.1-16.2,4.6l0.1,0.2c-0.1-0.1-0.2-0.1-0.3-0.2c-5.3-2.8-12.1-5-20-6.7c-0.1,0-0.3-0.1-0.4-0.1
			c-0.3-0.1-0.6-0.1-1-0.2c-9.4-2-20.2-3.3-31.2-4.1l-2.7-21.6l-1.5-12.3l-0.5-4.2c-1.9,0.2-3.9,0.5-5.9,0.8c-0.1,0-0.2,0-0.2,0
			c-0.5,0.1-1,0.2-1.5,0.3c-1.8,0.3-3.6,0.7-5.5,1.1c-0.7,0.2-1.4,0.3-2.1,0.5c-1.8,0.4-3.7,0.9-5.6,1.4l6.2,19.2l4.5,13.9
			c-4.3-0.2-8.6-0.3-12.8-0.4c-15.4-0.3-29.5,0-38.7,0.4c-3.3,0.1-6,0.2-7.9,0.3c-0.1,0-0.1,0-0.2,0c-0.3,0-0.5,0-0.8,0
			c-0.1,0-0.2,0-0.3,0c0,0,0,0,0,0c-0.1,0-0.2,0-0.3,0c-0.2,0-0.3,0-0.5,0c-0.1,0-0.1,0-0.2,0c-0.7,0-1,0.1-1,0.1l-6.8-11.9
			l-13.3-23.4c1.9-3,4.5-6.2,7.5-9.5c11-12.2,27.6-25.6,36.9-32.8c4.2-3.3,6.9-5.2,6.9-5.2c4.1-3,8.3-5.6,12.6-8
			c1.7-0.9,3.4-1.8,5.1-2.7c7.9-3.9,16-6.9,24.1-9c50.9-13.7,99.8,4.2,99.8,4.2c2.7,3.1,5.1,6.2,7.2,9.3
			C360.6,488.1,349.3,525.9,331.3,546.6z"/>
		<path class="st12" d="M225.4,465.1l4.8,39.6c-6.2,0.7-13.3,2.2-20.8,4.2l-13.1-40.5L225.4,465.1z"/>
		<path class="st14" d="M214.7,467.3c0,0-12.4,9.9-18.2,11.1C190.8,479.6,181,464,181,464s18.2-14,23-15.6
			C208.8,446.8,214.7,467.3,214.7,467.3z"/>
		<path class="st2" d="M267.4,547.2c-0.1,0-0.3-0.1-0.4-0.1c-9.7-2-20.8-3.3-32.2-4.2c-4.9-0.4-9.9-0.7-14.8-0.9
			c-26.1-1.1-50.8-0.2-59.5,0.2c-0.1,0-0.1,0-0.2,0c-0.3,0-0.5,0-0.8,0c-0.1,0-0.2,0-0.3,0c0,0,0,0,0,0c-0.1,0-0.2,0-0.3,0
			c-0.2,0-0.3,0-0.5,0c-0.1,0-0.1,0-0.2,0c-0.7,0-1,0.1-1,0.1l-6.8-11.9c17.4-7.6,39.5-16.5,58.9-21.7l10.7,33
			c4.9,0.2,9.9,0.5,14.8,0.9l-4.7-38.1c2.9-0.3,5.7-0.4,8.2-0.4c35.3,1.2,65.5-5.3,65.5-5.3S276.8,526.1,267.4,547.2z"/>
		<path class="st13" d="M143.8,496.6c0,0-11.8,11.8-13.2,14.9c0,0-17.4-16.5-31.2-15.4l35.1,61.7l16.7-10l17.9-4
			C169.2,543.7,161,520.8,143.8,496.6z"/>
		<path class="st12" d="M229.6,438.2c0,0,6.5,18.1,2.3,29l-16.2,4.4L199.8,450C199.8,450,206.4,437,229.6,438.2z"/>
		<path class="st13" d="M234.9,542.8c-4.9-0.4-9.9-0.7-14.8-0.9l-10.7-33c5.3-1.4,10.3-2.6,15-3.4c-0.7,1.1-1.2,2.2-1.4,3.3
			c-1.2,5.7,3.9,10,9.3,12.4L234.9,542.8z"/>
		<path class="st13" d="M99.7,501.5c0.5,1.3-0.6,2.7-0.5,4c0.2,2.4,3.7,3,5,5c1.3,2,0.2,5,1.5,7c1,1.5,3.1,2,4.3,3.5
			c1.6,2,0.9,5.2,2.4,7.3c1.3,1.7,3.7,2.1,5,3.7c2.2,2.6,0.9,6.7,2.5,9.7c1.6,2.9,5.6,4.2,6.3,7.3c0.5,2.2-0.7,5,1.1,6.4
			c0.6,0.5,1.4,0.6,1.9,1.1c0.9,0.9,0.8,2.5,2.7,2.5c0.7,0,1.5-0.3,2.1-0.8c0.5-0.4,1.3-0.8,1.4-1.5c0-0.4-0.2-0.8-0.3-1.1
			c-1-1.9-2.1-3.7-3.1-5.6c-0.9-1.7-1.8-3.3-2.9-4.9c-1.7-2.6-3.5-5.1-5.3-7.7c-5.5-8.1-9.5-17.1-13.8-25.9c-2.2-4.4-4.4-8.7-7-12.9
			c-2.1-3.5-3.9-3.4-6.6-1.3c-0.6,0.4-0.6,1.3,0,1.7C97.5,499.9,99.2,500.1,99.7,501.5z"/>
		<path class="st11" d="M246,442.8c-0.8,0.2-1.6,0.4-2.2,1c-0.6,0.6-0.6,1.7,0.1,2.1c0.3,0.2,0.6,0.2,0.9,0.2
			c10,0.3,20.1,0.6,30.1,0.9c2.5,0.1,9.9,0,8.8-4.3c-0.9-3.6-7.2-2.9-9.7-2.9C264.7,439.8,255.3,440.8,246,442.8z"/>
	</g>
	<path class="st17" d="M388.7,377.5L388.7,377.5c-0.6-0.3-0.7-1.1-0.4-1.6l3.8-6.2c0.3-0.6,1.1-0.7,1.6-0.4l0,0
		c0.6,0.3,0.7,1.1,0.4,1.6l-3.8,6.2C390,377.7,389.2,377.9,388.7,377.5z"/>
	<path class="st18" d="M394.8,381.2L394.8,381.2c-0.6-0.3-0.7-1.1-0.4-1.6l3.8-6.2c0.3-0.6,1.1-0.7,1.6-0.4l0,0
		c0.6,0.3,0.7,1.1,0.4,1.6l-3.8,6.2C396.1,381.4,395.3,381.6,394.8,381.2z"/>
	<path class="st19" d="M411.8,391.9L411.8,391.9c-0.6-0.3-0.7-1.1-0.4-1.6l3.8-6.2c0.3-0.6,1.1-0.7,1.6-0.4l0,0
		c0.6,0.3,0.7,1.1,0.4,1.6l-3.8,6.2C413.1,392.1,412.3,392.3,411.8,391.9z"/>
	<path class="st9" d="M380.6,383.9l-8.5,14.8c-0.4,0.8-0.3,1.7,0.5,2.3c3.1,2.3,11.7,8.5,22.4,12.7c0.8,0.3,1.7,0,2.2-0.7
		c1.6-2.8,5.6-9.4,8.3-13.4c0.6-0.8,0.3-2-0.6-2.5c-4.4-2.6-16.5-9.8-21.5-13.6C382.4,382.8,381.2,383,380.6,383.9z"/>
	<path class="st13" d="M232.2,521.2c-5.4-2.4-10.5-6.7-9.3-12.4c0.2-1.1,0.8-2.2,1.4-3.3c2-0.4,4-0.6,5.9-0.8L232.2,521.2z"/>
	<path class="st2" d="M359,455.3c3.4,1.7-13.4,3.9-15.9,6.8c-22.5,25.6-50.6,46.9-82.8,57.9c-6.9,2.3-14.2,4.2-21.5,3.2
		c-1.9-0.3-4.3-0.9-6.6-1.9l-2-16.5c2.6-6.9,7.4-16,10.5-19.7c15.5-18.6,21.2-24.9,39.1-32c11.1-4.4,17.6-6.8,50-4.7
		C339.7,448.9,350.4,450.9,359,455.3z"/>
	<path class="st14" d="M554.1,601.7c7.3,6.1,14.5,12.3,21.8,18.4c5.1,4.3,11.6,12.1,17.9,9.8c1-0.4,7.1-4.3,7.6-5.3
		c2-3.6-9.1-8.3-6.7-11.6c7.2,4,15.4,6.2,23.6,6.3c2.8,0,5.7-0.2,8.1-1.7c2.4-1.5,4-4.5,3-7.2c-0.5-1.2-1.4-2.2-2.3-3.1
		c-15.2-14.8-35.6-22.2-55.7-27.6c-7-1.9-20.1-8.1-26.2-1.9C537.2,586,548.1,596.7,554.1,601.7z"/>
	<path class="st3" d="M602.6,574c0,0,0.2-0.5,0.6-1.5c2.9-8,16.3-45.1,21.9-73.4c0,0,0,0,0,0c1-5,1.7-9.7,2.1-14
		c-1.8-0.5-3.7-0.8-5.7-1.1c-2.1-8.2-5.2-19.2-9.3-31.5c5.2-0.6,9.8-1.1,13.4-1.5c-2.1-26.5-5.1-52.4-13.3-70.5
		c-4.7-10.4-11.2-18.3-20.2-22.2c-12.5-5.5-23.5-7.8-33.2-7.7c-2.8,0-5.5,0.2-8.1,0.6c-14.8,2.3-25.9,10.7-34.3,21.6
		c-9.7,12.7-7.7,36.9,1.3,50.2c7.1,10.5,12.7,28.3,21.2,52.1c2.5,7,5.3,14.5,8.4,22.5c0.6,1.6-2.7,59-3.8,68.1
		c0,0.4-0.1,0.7-0.1,0.9C543.5,566.8,573.8,573,602.6,574z"/>
	<path class="st12" d="M540.6,581.4c0,0,39,18.6,60.1,7.7c0,0,5.1-10.6,4.5-16.5l-63.2-7C541.9,565.6,538.7,571.5,540.6,581.4z"/>
	<path class="st2" d="M627.2,485.1c0.3-3.5,0.4-6.7,0.2-9.4c-0.6-8.1-1.1-16.4-1.8-24.6c-3.6,0.3-8.2,0.8-13.4,1.5
		c4,12.2,7.1,23.2,9.3,31.5C623.5,484.3,625.4,484.7,627.2,485.1z"/>
	<path class="st2" d="M612.2,452.6c5.2-0.6,9.8-1.1,13.4-1.5c-2.1-26.5-5.1-52.4-13.3-70.5c-4.7-10.4-11.2-18.3-20.2-22.2
		c-12.5-5.5-23.5-7.8-33.2-7.7c-2.8,0-5.5,0.2-8.1,0.6C580,369.5,600.3,416.5,612.2,452.6z"/>
	<path class="st2" d="M625.1,499.1c1-5,1.7-9.7,2.1-14c-1.8-0.5-3.7-0.8-5.7-1.1C623.8,493,625,498.7,625.1,499.1z"/>
	<path class="st3" d="M478.7,554c-3.5,7.8-9.7,13.7-18.9,16.6c-8.8,2.8-14.8,4.6-20.6,5.5c-16.6,2.4-30.9-2.8-99.6-13.7
		c-9.5-1.5-20.5,0.1-31.5,1.1l-0.4-1.5l-3.8-12.8l-6.6-22.5c-2.8,0.8-5.8,1.8-8.9,2.9c-2.6,1-5.2,2.1-8,3.3c-0.5,0.2-1,0.4-1.5,0.7
		c-0.5,0.2-1,0.5-1.5,0.7l10,19.3l0.2,0.3l0.1,0.2l5.7,11c-14.9,1.8-29.3,4.3-40.4,6.4l0,0c-3.9,0.7-7.4,1.5-10.4,2.1
		c-3.2,0.7-5.9,1.2-7.7,1.6c-0.1,0-0.1,0-0.2,0c-0.3,0.1-0.5,0.1-0.8,0.2c-0.1,0-0.2,0.1-0.3,0.1h0c-0.1,0-0.2,0-0.3,0.1
		c-0.2,0.1-0.3,0.1-0.5,0.1c-0.1,0-0.1,0-0.2,0.1c-0.6,0.1-1,0.2-1,0.2l-25.6-31.5c0.4-0.9,0.8-1.7,1.2-2.7c0-0.1,0-0.1,0.1-0.1
		c2.1-4.2,5-8.8,8.3-13.5c2.9-4.1,6-8.2,9.3-12.1c2-2.4,3.9-4.8,5.9-7.1c1.3-1.5,2.6-3.1,3.9-4.5c7.8-8.9,14.1-15.3,14.1-15.3
		c17.2-17.4,42.5-27.2,68.9-32.5c6.5-1.3,13.1-2.3,19.6-3.1c12.6-1.6,25.1-2.3,36.8-2.5c34.4-0.6,61.1,3.3,61.1,3.3
		C473.1,485.3,489.9,529.3,478.7,554z"/>
	<path class="st12" d="M297.3,526.7c-2.8,0.8-5.8,1.8-8.9,2.9C291.5,528.4,294.5,527.4,297.3,526.7L286,488.4l-28.2,7.9l19.6,37.8
		c1-0.5,2-0.9,3-1.4c-1,0.4-2,0.9-3,1.4l10,19.3c5.5-1.8,11.1-3.2,16.5-4.3L297.3,526.7z"/>
	<path class="st14" d="M275.9,492.3c0,0-10.6,11.8-16.1,14s-17.7-11.6-17.7-11.6s15.7-16.8,20.1-19.2
		C266.7,473.1,275.9,492.3,275.9,492.3z"/>
	<path class="st13" d="M210.8,532.8c0,0-9.7,13.6-10.5,16.9c0,0-19.9-13.4-33.3-10.1l44.8,55.1l14.9-12.6l17-6.9
		C243.6,575.2,231.6,553.9,210.8,532.8z"/>
	<path class="st12" d="M285.8,461.2c0,0,9.4,16.8,7,28.2l-15.3,7l-19.2-18.8C258.4,477.7,262.7,463.8,285.8,461.2z"/>
	<path class="st20" d="M303.9,549.2c-0.9,0.2-7.5,2.1-16.2,4.6l-0.2-0.3C292.9,551.7,298.4,550.3,303.9,549.2z"/>
	<path class="st13" d="M168.1,544.9c0.7,1.2-0.2,2.7,0.2,4.1c0.6,2.3,4.1,2.3,5.7,4.1c1.6,1.8,1,4.9,2.6,6.7
		c1.2,1.4,3.4,1.5,4.8,2.7c1.9,1.7,1.7,5,3.5,6.8c1.5,1.5,4,1.5,5.6,2.9c2.6,2.1,2,6.5,4.1,9.2c2,2.6,6.2,3.2,7.4,6.2
		c0.8,2.1,0.2,5,2.1,6.1c0.7,0.4,1.5,0.4,2.1,0.8c1,0.7,1.2,2.3,3,2.1c0.7-0.1,1.4-0.5,1.9-1.1c0.4-0.4,1.2-1,1.1-1.7
		c0-0.4-0.3-0.7-0.5-1c-1.3-1.7-2.6-3.3-4-5c-1.2-1.5-2.4-3-3.6-4.4c-2.1-2.3-4.3-4.4-6.5-6.7c-6.8-7.1-12.2-15.3-17.8-23.3
		c-2.8-4-5.8-7.9-9-11.6c-2.7-3.1-4.4-2.7-6.7-0.2c-0.5,0.5-0.4,1.4,0.3,1.7C165.6,543.7,167.3,543.6,168.1,544.9z"/>
	<path class="st11" d="M302.8,462.9c-0.8,0.3-1.6,0.6-2,1.3c-0.5,0.7-0.3,1.8,0.5,2.1c0.3,0.1,0.6,0.1,1,0c10-1.3,19.9-2.7,29.9-4
		c2.5-0.3,9.7-1.6,8-5.7c-1.4-3.4-7.5-1.7-10-1.2C320.7,457,311.5,459.5,302.8,462.9z"/>
	<path class="st14" d="M547,610.8c0.8,3.4,1.8,7,4.6,9.1c2.5,1.9,5.9,2.1,9,2.2c1.7,0.1,3.7-0.1,4.5-1.5c0.4-0.7,0.4-1.6,0.4-2.5
		c-0.1-2.6-0.2-5.2-0.3-7.9c-0.1-3-0.3-6.1-1.3-8.9c-1.5-3.9-4.7-6.9-7.8-9.8c-2.9-2.7-11.1-9.8-12.3-1.9
		C542.7,596,545.6,604.6,547,610.8z"/>
	<path class="st14" d="M268.8,219.2c0,0-51.5-72.7-59.5-68.6c-2.7,1.4-6.1,8.1-6.1,8.1l15.4,26c0,0-21.4,11-26.5,31.2
		s39.6,39.7,39.6,39.7s12.8-11.5,14.6-12.3C248,242.4,268.8,219.2,268.8,219.2z"/>
	<path class="st2" d="M310.5,327.3c-2.8,6-5.7,11.9-8.7,17.8c-0.5,1-1,2-1.6,3c-0.4-0.4-0.8-0.7-1.1-1.1
		c-11.4-11.1-23.4-25.6-23.7-25.9c0.4-0.8,0.8-1.5,1.2-2.3c1-1.8,3.6-6.2,7.1-11.9C293.2,316.7,302.8,324.8,310.5,327.3z"/>
	
		<linearGradient id="SVGID_3_" gradientUnits="userSpaceOnUse" x1="248.7648" y1="465.8624" x2="222.98" y2="475.8607" gradientTransform="matrix(1 0 0 -1 0 680)">
		<stop  offset="0" style="stop-color:#009FD6"/>
		<stop  offset="1" style="stop-color:#00B4DE"/>
	</linearGradient>
	<path class="st21" d="M266.9,215.1l-13.9-23.5c0,0-19-2.3-23.6-1.6c-4.6,0.7,0.9,12.9,0.9,12.9s10,1.1,11,3.9
		c1.1,2.8-4.1,19.1-1.9,26.8C241.6,241.5,266.9,215.1,266.9,215.1z"/>
	<path class="st2" d="M243.2,255.8c0,0,20,29.7,40.5,51c-3.5,5.7-6.1,10.1-7.1,11.9c-0.4,0.7-0.9,1.5-1.2,2.3
		c-6.9-8.2-14.5-17.9-16.2-20.2c-12.7-16.3-24.3-32.8-26.9-36.5C237.7,260,243.2,255.8,243.2,255.8z"/>
	<path class="st12" d="M268.8,213.1c0,0-38.8,19.1-43.3,42.4c0,0,5.2,10.5,10.2,13.7l44.7-45.3C280.4,223.9,277.8,217.8,268.8,213.1
		z"/>
	<path class="st2" d="M326.8,448.3c0,0,71.1-23.8,127.6-0.7c0,0-40.1-7.9-63.2-2.2c0,0,59.4,3.1,78.4,33c0,0-35.5-31.7-132.3-25
		L326.8,448.3z"/>
	<path class="st13" d="M308.2,563.5c-4.9,0.4-9.9,1-14.7,1.6l-5.7-11l-0.1-0.2c8.8-2.5,15.4-4.4,16.2-4.6c0,0,0.1,0,0.1,0
		c0,0,0,0,0,0l3.8,12.8L308.2,563.5z"/>
	<path class="st2" d="M287.7,554l5.7,11c-14.9,1.8-29.3,4.3-40.4,6.4l0,0c-3.9,0.7-7.4,1.5-10.4,2.1l-2.6-4.3
		c9.1-4,31.7-10.8,47.5-15.4c0.1,0,0.1,0,0.2-0.1L287.7,554z"/>
	<path class="st2" d="M510.3,535.4c-14.2,19-28,36.4-36.6,39.8c-38,14.9-65.3-1.9-134-12.8c-9.5-1.5-20.5,0.1-31.5,1.1l-0.4-1.5
		l-3.8-12.8c10.1-1.4,19.1-2.3,27.3-2.6h0c10.5-0.4,19.8-0.1,28.4,0.8c23,2.5,41.1,9,65.6,14.9c23.9,5.8,42.2-0.6,53.5-8.3
		c7.9-5.4,12.4-11.5,13.2-14.5c1.8-7.3-13.5-64.3-13.5-64.3s30.7,51.6,31.7,57.6C510.2,533.5,510.3,534.3,510.3,535.4z"/>
	<path class="st12" d="M500.6,386.8c-4.4,5.7-7.9,11.8-10.6,18.1c-12.4,29.2,22.9,102.3,27.6,123.9c0,7.9-3.7,14.7-16.6,18.7
		c-5.3-22.5-40.9-106.9-29.2-141.2c0.9-2.5,1.8-5,2.9-7.3c3-6.8,6.5-12.8,10.6-18.3c29.8-40.2,85.2-40.6,87.3-34.6
		c2.5,7.2-1.2,4.1-1.2,4.1c-7.3,0.5-22.2,4.9-22.2,4.9C526.5,361.9,511,373.3,500.6,386.8z"/>
	<path class="st2" d="M523.3,516.5c8.8-37.4-0.7-84.8,3.1-76.3c3.9,9,12.7,35,12.7,35l2.9,8C536.1,495.3,529.8,506.5,523.3,516.5z"
		/>
	<path class="st22" d="M218.5,184.6c0,0,9.7,15.1,9.7,22.1s-17.9,26.8-22.1,27c-4.2,0.2-14.5-12.3-14.5-12.3
		S188.8,198.5,218.5,184.6z"/>
	<polygon class="st2" points="261.5,62.4 270.3,80.1 289.8,82.9 275.7,96.7 279,116.2 261.5,107 244.1,116.2 247.4,96.7 233.3,82.9 
		252.8,80.1 	"/>
	<polygon class="st2" points="58.4,54 61.5,60.2 68.3,61.2 63.4,66 64.5,72.7 58.4,69.5 52.4,72.7 53.5,66 48.6,61.2 55.4,60.2 	"/>
	<polygon class="st2" points="58.4,175.9 61.5,182 68.3,183 63.4,187.8 64.5,194.6 58.4,191.4 52.4,194.6 53.5,187.8 48.6,183 
		55.4,182 	"/>
	
		<linearGradient id="SVGID_4_" gradientUnits="userSpaceOnUse" x1="134.6546" y1="477.6364" x2="171.669" y2="477.6364" gradientTransform="matrix(1 0 0 -1 0 680)">
		<stop  offset="0" style="stop-color:#00C5D5"/>
		<stop  offset="1" style="stop-color:#A769FF"/>
	</linearGradient>
	<polygon class="st23" points="153.2,184.8 158.9,196.4 171.7,198.2 162.4,207.2 164.6,220 153.2,214 141.7,220 143.9,207.2 
		134.7,198.2 147.4,196.4 	"/>
	<polygon class="st6" points="138.2,101.8 142.8,111.2 153.2,112.7 145.7,120 147.4,130.4 138.2,125.5 128.9,130.4 130.7,120 
		123.2,112.7 133.5,111.2 	"/>
</g>
<path class="st24" d="M223.3,252.8c-0.1-0.5-0.2-1.3-0.1-1.8c1-2.6,1.2-4.3,4.8-8.7c17.8-22.3,37.1-33.5,41.9-30.1
	c0.9,0.6,6.2,5.2,6,6c-2.8,2.6-6.7,2.1-16.2,6.8c-9,4.5-17,8.4-21.1,16.7c-2,3.3-3.4,5-6.9,10.7c-1.2,1.7-4.4,6.8-6.2,5.2
	C225.1,256.9,224,255.4,223.3,252.8z"/>
<path class="st24" d="M601.2,588.9c-0.3,0.4-1.4,1.4-1.8,1.7c-2.3,1.2-4.4,2.3-10,2.3c-28.5,0.7-49.3-7.7-49.8-13.6
	c-0.1-1.1-0.1-8.1,0.7-8.5c3.8,0.5,5.9,3.7,15.6,8c9.2,4,17.4,7.6,26.4,5.4c3.4-0.8,6.2-0.6,12.6-1.7c2.5,0,8-1,8,1.4
	C602.7,584.8,602.8,586.7,601.2,588.9z"/>
</svg>
