<?xml version="1.0" encoding="utf-8"?>
<!-- Generator: Adobe Illustrator 23.0.1, SVG Export Plug-In . SVG Version: 6.00 Build 0)  -->
<svg version="1.1" id="Layer_1" xmlns="http://www.w3.org/2000/svg" xmlns:xlink="http://www.w3.org/1999/xlink" x="0px" y="0px"
	 viewBox="0 0 680 680" style="enable-background:new 0 0 680 680;" xml:space="preserve">
<style type="text/css">
	.st0{fill:url(#SVGID_1_);}
	.st1{fill:url(#SVGID_2_);}
	.st2{fill:url(#SVGID_3_);}
	.st3{fill:#009FD6;}
	.st4{fill:url(#SVGID_4_);}
	.st5{fill:#00B4DE;}
	.st6{fill:#DDFFFF;}
	.st7{fill:#75CAFF;}
	.st8{fill:#354E6F;}
	.st9{fill:#A769FF;}
	.st10{fill:#825BDC;}
	.st11{fill:#2D7BFF;}
	.st12{fill:url(#SVGID_5_);}
	.st13{fill:#00C5D5;}
	.st14{fill:#009DD0;}
	.st15{fill:#004FA1;}
	.st16{fill:#30261A;}
	.st17{fill:#353F69;}
	.st18{fill:#FFFFFF;}
	.st19{fill:url(#SVGID_6_);}
	.st20{fill:#EB3854;}
	.st21{fill:#E9747F;}
	.st22{fill:#E1909C;}
	.st23{fill:#83C451;}
	.st24{fill:#487CBE;}
	.st25{fill:url(#SVGID_7_);}
	.st26{fill:url(#SVGID_8_);}
	.st27{fill:url(#SVGID_9_);}
	.st28{fill:url(#SVGID_10_);}
	.st29{fill:url(#SVGID_11_);}
	.st30{fill:url(#SVGID_12_);}
	.st31{fill:#006699;}
</style>
<g>
	<g>
		
			<linearGradient id="SVGID_1_" gradientUnits="userSpaceOnUse" x1="97.9897" y1="258.0532" x2="497.3626" y2="41.8319" gradientTransform="matrix(0.8871 -0.2793 -4.560000e-02 -1.1129 -73.1992 500.211)">
			<stop  offset="0" style="stop-color:#00C5E2"/>
			<stop  offset="0.3207" style="stop-color:#32A9EB"/>
			<stop  offset="1" style="stop-color:#A769FF"/>
		</linearGradient>
		<path class="st0" d="M302.1,307.8l-219.3,69c-10.9,3.4-22.1-4.4-22.6-15.9l-6.2-151c-0.3-7.9,4.7-14.9,12.2-17.3l219.3-69.1
			c10.9-3.4,22.1,4.4,22.6,15.9l6.2,151C314.6,298.4,309.6,305.5,302.1,307.8z"/>
		
			<linearGradient id="SVGID_2_" gradientUnits="userSpaceOnUse" x1="307.4782" y1="183.505" x2="431.6828" y2="116.2605" gradientTransform="matrix(0.8871 -0.2793 -4.560000e-02 -1.1129 -73.1992 500.211)">
			<stop  offset="0" style="stop-color:#1DD7FF"/>
			<stop  offset="0.2136" style="stop-color:#36C3FF"/>
			<stop  offset="0.6634" style="stop-color:#7491FF"/>
			<stop  offset="1" style="stop-color:#A769FF"/>
		</linearGradient>
		<path class="st1" d="M292.4,216.2c1.3,30.9-17.6,62.1-42.2,69.9s-45.6-11-46.8-41.8s17.6-62.1,42.2-69.9
			C270.2,166.6,291.1,185.3,292.4,216.2z"/>
		
			<linearGradient id="SVGID_3_" gradientUnits="userSpaceOnUse" x1="253.6243" y1="-40.4035" x2="429.594" y2="-135.6739" gradientTransform="matrix(0.7562 -0.5828 -0.1299 -1.2222 -143.8116 328.1475)">
			<stop  offset="0" style="stop-color:#1DD7FF"/>
			<stop  offset="0.233" style="stop-color:#4CB2FF"/>
			<stop  offset="0.4658" style="stop-color:#7392FF"/>
			<stop  offset="0.6781" style="stop-color:#907CFF"/>
			<stop  offset="0.863" style="stop-color:#A16EFF"/>
			<stop  offset="1" style="stop-color:#A769FF"/>
		</linearGradient>
		<path class="st2" d="M175.6,228.2l-97.8,34.2c-3.8,1.3-7.2-1.5-7.5-6.3l0,0c-0.4-4.8,2.5-9.8,6.2-11.1l97.8-34.2
			c3.8-1.3,7.2,1.5,7.5,6.3l0,0C182.2,221.9,179.3,226.9,175.6,228.2z"/>
	</g>
	<g>
		<path class="st3" d="M330.9,279.6c0,0-66.2-32.4-70.4-26.2c-1.4,2.1-1.2,8.3-1.2,8.3l21.4,12.8c0,0-11.2,16.4-6.9,33.2
			s44.5,13.1,44.5,13.1s4.7-13.4,5.7-14.7C325.1,304.7,330.9,279.6,330.9,279.6z"/>
		
			<linearGradient id="SVGID_4_" gradientUnits="userSpaceOnUse" x1="759.9437" y1="282.2015" x2="738.6165" y2="290.4713" gradientTransform="matrix(0.8777 -0.4792 -0.4792 -0.8777 -217.3704 895.7105)">
			<stop  offset="0" style="stop-color:#009FD6"/>
			<stop  offset="1" style="stop-color:#00B4DE"/>
		</linearGradient>
		<path class="st4" d="M327.9,277.4l-19.4-11.5c0,0-14.7,5.9-17.8,8.2c-3,2.3,5.8,9,5.8,9s7.7-3.1,9.5-1.5
			c1.9,1.6,4.6,15.5,9.3,20.2C320,306.5,327.9,277.4,327.9,277.4z"/>
		<path class="st5" d="M280.8,274.4c0,0,13,7.1,15.8,12.2s-2.4,26.6-5.3,28.4s-15.4-3.2-15.4-3.2S264.7,296.3,280.8,274.4z"/>
	</g>
	<g>
		<path class="st6" d="M400.4,390c-5.1-1-8-2.7-10.4-3.8c-0.5-0.3-1.1-0.6-1.7-0.9c-2.9-1.5-5.9-3.2-9-5.1c-1.1-0.7-2.3-1.4-3.5-2.1
			c-3.8-2.4-69.8-58.3-69.8-58.3c2.6-24.7,23.9-40.5,23.9-40.5l46.4,25.4l0,0l5.3,3l6.3-0.2l52-1.5l22.9-0.6
			c2.3,1.8,4.5,3.6,6.4,5.4C515.3,354.2,438.5,397.7,400.4,390z"/>
		<path class="st7" d="M368.1,349.4l-3.9,20.9c-6.9-4-52.6-42.4-53-42.7c-0.8-0.7-1.6-1.4-2.3-2.1l2-3.8
			C311,321.6,347.6,343.9,368.1,349.4z"/>
		<path class="st7" d="M397,389.1c-1.2-0.4-2.4-0.8-3.5-1.3c-0.5-0.3-1.1-0.5-1.7-0.8c-0.5-0.3-1.1-0.5-1.6-0.8c0,0-0.1,0-0.1-0.1
			c-0.5-0.3-1.1-0.6-1.7-0.9c-2.9-1.5-5.9-3.2-9-5.1c-1.1-0.7-2.3-1.4-3.5-2.1c-3.8-2.4-7.7-5-11.7-7.8l3.9-20.9
			c3.7,1,6.8,1.4,9.2,1.1c3.3-0.5,8.5-3.2,14.7-7.1L397,389.1z"/>
		<path class="st7" d="M400.4,390c-0.6-0.1-1.2-0.3-1.7-0.4c-0.3-0.1-0.6-0.1-0.8-0.2c-0.3-0.1-0.6-0.2-0.8-0.2l-5.1-45.8
			c15.4-9.8,36.6-27.5,48.1-37.3l22.9-0.6c2.3,1.8,4.5,3.6,6.4,5.4L400.4,390z"/>
		<path class="st8" d="M329.6,278.2c0,0-27.6,22.8-26.8,42.4c0,0,6.2,7.5,10.8,9.1l27.4-44.9C341,284.7,337.7,280.3,329.6,278.2z"/>
	</g>
	<path class="st9" d="M583.1,551.5c0,0-11.7,2.7-27.4,3c-16.1,0.4-36.3-1.7-52.4-11.5c-31.9-19.3,61.1-212.6,61.1-212.6
		s15.6,0.6,33.4,6.4c8.7,2.8,17.9,6.9,26.1,12.7c0,0,16,34.7,6.7,90.2c-2.8,16.8-7.9,35.4-16.4,55.6
		C606.7,513,596.6,531.8,583.1,551.5z"/>
	<path class="st10" d="M614.2,495.3c-1.6,1.7-3.3,3.4-5,5c-6,5.9-12.3,11.6-19.1,16.6c-13.4,9.8-30,18.7-33.9,34.8
		c-0.2,0.9-0.4,1.8-0.6,2.7c-16.1,0.4-36.3-1.7-52.4-11.5c-31.9-19.3,61.1-212.6,61.1-212.6s15.6,0.6,33.4,6.4
		c0.4,7.9,0,16,1.3,21.2c2,8,7.5,14.7,11.8,21.8c7.8,12.5,12.4,26.8,16,41.1c1.5,6.1,2.8,12.5,3.7,18.8
		C627.8,456.5,622.7,475.1,614.2,495.3z"/>
	<path class="st6" d="M434.3,533.5c-6-0.7-13.9,1.7-22.8,5.7c-0.1,0-0.2,0.1-0.3,0.1c-0.3,0.1-0.5,0.2-0.8,0.3
		c-7.2,3.4-15,7.9-22.7,12.8l-22-22.9c-3.8,3.5-7.8,8-11.7,13.1l23.5,16.6c-17.8,12.2-33.6,25.1-39.2,29.7c0,0-0.1,0.1-0.1,0.1
		c-0.2,0.2-0.4,0.3-0.5,0.4c-0.1,0.1-0.1,0.1-0.2,0.2c0,0,0,0,0,0c-0.1,0-0.1,0.1-0.2,0.2c-0.1,0.1-0.2,0.2-0.3,0.3
		c0,0-0.1,0.1-0.1,0.1c-0.4,0.3-0.6,0.5-0.6,0.5l-30.8-13.4c-1.4-18.4,10.4-56.9,10.4-56.9c18.8-60.2,86-80.5,86-80.5
		C467.2,453.5,461.7,536.5,434.3,533.5z"/>
	<path class="st6" d="M509.2,530.1c-9.6,6.9-19.3,18.5-38.6,14.5c-21.6-4.5-44.5-13.5-57.8-21.6c-25.2-15.4-40.6-69.3-40.6-69.3
		c23.3-77.5,58.9-131.9,70.8-148.8c2.6-3.7,4.1-5.6,4.1-5.6c58.5,62.1,137.3,43.5,137.3,43.5c0.4,2.4,0.8,4.7,1.1,7.1
		c1.5,11.4,2,22.7,1.5,33.7C583.9,463.5,526.6,517.5,509.2,530.1z"/>
	<path class="st11" d="M585.5,349.9c-0.5,0.3-1,0.5-1.5,0.6c-28.9,7.6-59.7,4.7-89.5-8.3c-3.1-1.3-6.1-2.8-9.2-4.3
		c-24.5-12.4-39.4-27.3-40-27.9c-1.4-1.4-2.2-3.3-2.2-5.1c2.6-3.7,4.1-5.6,4.1-5.6c58.5,62.1,137.3,43.5,137.3,43.5
		C584.8,345.2,585.2,347.5,585.5,349.9z"/>
	<path class="st8" d="M381,426.7c-2-9,4.5-13.6,4.5-13.6c19.3-13.4,32.2-35.6,40.6-56.6c1.7-4.2,3.2-8.4,4.6-12.5
		c7.6-22.9,9.9-41.6,9.9-41.6c4.3-2.8,13.3-4.3,13.3-4.3l-1,10.1c-2.2,16.9-5.4,31.5-9.1,43.9c-1.4,4.5-2.9,8.8-4.4,12.8
		C417.2,423,381,426.7,381,426.7z"/>
	<path class="st7" d="M587.3,332.5c-10.2,6.4-70.2,15.8-122.2-22c0,0-5.5-7.4-10.3-20.1c0,0,0,0,0,0c-7-18.5-12.5-48.2,2.4-82.7
		c25.1-58.3,111.7-34.7,129.9-24.4c8.8,5,19.9,13.6,28.2,26c0,0,0,0,0,0c8.8,13.3,14.5,30.9,10.7,53.3
		C618.9,305.9,597.5,326.1,587.3,332.5z"/>
	<path class="st6" d="M578.8,315.1c-9.2,5.7-58.4,13.9-106-11.8c-5.5-2.9-10.9-6.3-16.2-10.2c0,0-0.7-0.9-1.8-2.7c0,0,0,0,0,0
		c-7-18.5-12.5-48.2,2.4-82.7c1.4-3.3,3-6.3,4.8-9c29.8-46.6,108-25.1,125.2-15.4c8.8,5,19.9,13.6,28.2,26c0,0,0,0,0,0
		c3.3,10.2,4.5,22.2,2.3,35.9C610.4,288.5,589,308.7,578.8,315.1z"/>
	<path class="st11" d="M578.9,306c-34.8,19.3-79.6,7.5-106-2.7c-5.5-2.9-10.9-6.3-16.2-10.2c0,0-0.7-0.9-1.8-2.7c0,0,0,0,0,0
		c-7-18.5-12.5-48.2,2.4-82.7c1.4-3.3,3-6.3,4.8-9c57.2-5.1,136.2,34.1,136.2,34.1C594.6,291.5,578.9,306,578.9,306z"/>
	
		<linearGradient id="SVGID_5_" gradientUnits="userSpaceOnUse" x1="127.0523" y1="354.1188" x2="218.797" y2="437.234" gradientTransform="matrix(0.954 0.2997 0.2997 -0.954 247.0048 571.6652)">
		<stop  offset="0" style="stop-color:#00C5D5"/>
		<stop  offset="0.9997" style="stop-color:#A769FF"/>
	</linearGradient>
	<path class="st12" d="M575.5,303.3c-26.7,13.5-60.2,8.7-85.7,1.2c-22.8-6.7-39.3-15.5-39.3-15.5c-22.9-37.6,3.1-85.4,3.1-85.4
		c13.2-1.6,28-0.6,42.9,1.9c47.7,8.1,96.3,31.4,96.3,31.4C590.5,290.3,575.5,303.3,575.5,303.3z"/>
	<path class="st13" d="M549,297.4c-18.2,9.2-39.5,9.9-59.2,7c-22.8-6.7-39.3-15.5-39.3-15.5c-22.9-37.6,3.1-85.4,3.1-85.4
		c13.2-1.6,28-0.6,42.9,1.9c37.7,10.1,69.8,25.6,69.8,25.6C564,284.5,549,297.4,549,297.4z"/>
	<path class="st7" d="M586.3,281.7c0,0-7.7,13.7,4.1,25c11.8,11.2,19.6-13.2,19.6-13.2L586.3,281.7z"/>
	<g>
		<path class="st14" d="M608.4,252.1l0.7,0.4c1.2,0.7,2.7,0.3,3.4-0.9l6.4-11.3c0.7-1.2,0.3-2.7-0.9-3.4l-0.7-0.4
			c-1.2-0.7-2.7-0.3-3.4,0.9l-6.4,11.3C606.7,249.9,607.2,251.5,608.4,252.1z"/>
		<path class="st14" d="M613.4,273.4c2.5-8.1,3.1-15.8,1.9-21.3l1.7-5.2l-6.8-2.1c-6.2-1.9-14.7,7.7-19.1,21.6s-2.9,26.7,3.3,28.6
			l6.8,2.1l1.7-5.2C606.9,288.2,610.9,281.5,613.4,273.4z"/>
		<polygon class="st14" points="616.3,236.1 624.9,239.3 619,250.3 610.8,246.4 		"/>
		<path class="st15" d="M620.3,275.6c-4.4,13.9-12.9,23.5-19.1,21.6s-7.7-14.8-3.3-28.6c4.4-13.9,12.9-23.6,19.1-21.6
			C623.2,248.9,624.6,261.7,620.3,275.6z"/>
		<path class="st14" d="M615.4,272.8c-2.5,7.9-6.5,13.7-8.9,12.9c-1-0.3-1.5-1.5-1.7-3.4c-0.3-3,0.3-7.5,1.8-12.3
			c1.5-4.9,3.6-8.9,5.6-11.1c1.2-1.4,2.4-2.1,3.4-1.8C617.9,257.9,617.8,264.9,615.4,272.8z"/>
		<path class="st16" d="M610.3,271.2c-1.5,4.8-3.6,8.9-5.6,11.1c-0.3-3,0.3-7.5,1.8-12.3c1.5-4.9,3.6-8.9,5.6-11.1
			C612.4,261.9,611.8,266.4,610.3,271.2z"/>
		<path class="st15" d="M616.4,255.1l1.3,0.7c1,0.6,2.4,0.2,3-0.8l5.9-11c0.6-1,1.1-3.2,0.1-3.8l-1.3-0.7c-1-0.6-2.4-0.2-3,0.8
			l-6.8,11.8C615,253.1,615.4,254.5,616.4,255.1z"/>
	</g>
	<path class="st8" d="M521.6,403.3c-3.9-1.1-8.2-2.5-12.9-4.2c-17.7-6.3-41-16.7-69.3-34.2c-4.3-2.7-8.7-5.5-13.2-8.5
		c1.7-4.2,3.2-8.4,4.6-12.5c3.6,2.5,7.9,5.2,13,8.1c15.6,8.9,38.8,19.8,72.7,31.4c4.1,1.4,8.4,2.9,12.9,4.3
		C526,392.7,523.5,397.9,521.6,403.3z"/>
	<path class="st17" d="M544,500.3l-12.3,11.4c0,0-17.5-17.4-20.1-26c4.4-4.7,8.5-9.4,11.2-12.5C526,484.2,544,500.3,544,500.3z"/>
	<path class="st8" d="M529.3,387.8c-3.3,5-5.9,10.2-7.8,15.5c-8.7,24.7-3.8,52.4,1.3,70c-2.7,3.1-6.8,7.8-11.2,12.5
		c-5.5-18.3-12.9-51.4-5-80.4c0.6-2.1,1.2-4.2,2-6.2c2.1-5.7,4.7-10.9,7.8-15.7c22.5-34.8,67-43.6,69-38.7c2.4,5.8,0.5,9,0.5,9
		c-6,0.8-18,5.2-18,5.2C549.4,365.9,537.2,376,529.3,387.8z"/>
	<g>
		<path class="st17" d="M495.9,338.8c-3.1-1.3-6.1-2.8-9.2-4.3c-24.5-12.4-39.4-27.3-40.1-27.9c-2.9-2.9-2.9-7.6,0-10.5
			c2.9-2.9,7.7-2.8,10.6,0.1l0,0c0.1,0.1,14.2,14,36.6,25.3c29.6,14.9,59,18.7,87.6,11.3c4-1,8.1,1.3,9.2,5.3c1.1,4-1.3,8-5.2,9.1
			C556.5,354.7,525.7,351.8,495.9,338.8z"/>
	</g>
	<path class="st8" d="M343,505.7l22.8,23.8c-3.8,3.5-7.8,8-11.7,13.1l-28.8-20.3L343,505.7z"/>
	<path class="st3" d="M337,512.4c0,0-3.3,12.7-6.5,16.4S313,527,313,527s5.1-18.3,7.5-21.8C322.9,501.8,337,512.4,337,512.4z"/>
	<path class="st7" d="M411.5,539.2c-0.1,0-0.2,0.1-0.3,0.1c-7.4,3.5-15.4,8.1-23.4,13.2c-3.4,2.2-6.9,4.5-10.2,6.8
		c-17.8,12.2-33.7,25.1-39.3,29.7c0,0-0.1,0.1-0.1,0.1c-0.2,0.1-0.3,0.3-0.5,0.4c-0.1,0.1-0.1,0.1-0.2,0.2c0,0,0,0,0,0
		c-0.1,0-0.1,0.1-0.2,0.2c-0.1,0.1-0.2,0.2-0.3,0.3c0,0-0.1,0.1-0.1,0.1c-0.4,0.3-0.6,0.5-0.6,0.5l-10.4-4.5
		c7.8-13.7,18-30.5,28.2-43.6l23.5,16.6c3.4-2.3,6.8-4.6,10.2-6.8l-22-22.9c1.8-1.7,3.5-3.1,5.2-4.3c24-16.7,40.7-36,40.7-36
		S407.2,520.6,411.5,539.2z"/>
	<path class="st17" d="M304.6,567c0,0-2,13.7-1.3,16.4c0,0-19.7-2.3-28.3,5.3l53.8,23.4l6.1-14.9l9.9-11.6
		C344.8,585.6,327.9,574.5,304.6,567z"/>
	<path class="st8" d="M332.4,485.8c0,0,13.3,8.8,15.9,18.1l-8.5,11l-21.3-6.5C318.5,508.4,316.5,496.5,332.4,485.8z"/>
	<path class="st17" d="M387.8,552.4c-3.4,2.2-6.9,4.5-10.2,6.8l-23.5-16.6c4-5.1,7.9-9.6,11.7-13.1L387.8,552.4z"/>
	<g>
		<path class="st6" d="M484.2,633.4c-14.2,8.8-36.2,3-36.2,3s-38.2-68.4-44.6-92c-6.4-23.6,16.3-78,16.3-78l98.5,56.2
			c-9,7.3-16,18.6-20.9,26.2c-3.7,5.7-6.5,12.2-8.6,18.9C479.4,597.9,484.2,633.4,484.2,633.4z"/>
		<path class="st8" d="M488.7,567.8l-68.3,2l-3-19.4l79.9-1.5C493.6,554.7,490.8,561.1,488.7,567.8z"/>
		<path class="st3" d="M422.1,555.1c0,0,7.3,10.9,7.9,15.8c0.6,4.8-12.9,11.8-12.9,11.8s-10.3-16-11.3-20.1
			C404.8,558.6,422.1,555.1,422.1,555.1z"/>
		<path class="st8" d="M399.2,540.8c0,0,15.4-4.1,24.1,0.2l2.5,13.7l-19,11.6C406.8,566.1,396.5,559.8,399.2,540.8z"/>
		<path class="st17" d="M442.5,632.3c0,0,6.4,12.3,8.5,14.1c0,0-17.3,9.7-19.9,20.8l57.4-12.4l-3.7-15.7l1.3-15.1
			C486,623.9,465.8,624.8,442.5,632.3z"/>
		<path class="st17" d="M435.4,668.3c1.1-0.1,2,1.1,3.1,1.4c2,0.4,3.3-2.2,5.2-2.7s4,1.1,5.9,0.6c1.5-0.4,2.4-1.9,3.8-2.5
			c2-0.8,4.3,0.6,6.3-0.1c1.6-0.6,2.6-2.3,4.2-3c2.6-1.1,5.5,1,8.3,0.4c2.7-0.5,4.7-3.3,7.4-3.1c1.9,0.2,3.8,1.8,5.3,0.7
			c0.5-0.3,0.8-0.9,1.4-1.2c0.9-0.5,2.2,0,2.7-1.5c0.2-0.6,0.1-1.2-0.1-1.8c-0.2-0.5-0.3-1.2-0.9-1.5c-0.3-0.1-0.6-0.1-1,0
			c-1.7,0.3-3.5,0.7-5.2,1c-1.5,0.3-3.1,0.6-4.6,1c-2.5,0.7-4.9,1.5-7.4,2.3c-7.8,2.3-15.9,3.2-23.9,4.5c-4,0.6-8,1.3-11.9,2.3
			c-3.3,0.8-3.6,2.2-2.7,4.9c0.2,0.5,0.9,0.8,1.3,0.4C433.6,669.6,434.1,668.3,435.4,668.3z"/>
		<path class="st18" d="M421.4,478.4c-3.9,8.7-7.8,18-6.5,27.5c0.2,1.4,1.3,3.3,2.6,2.7c0.6-0.3,0.9-1,1.1-1.6
			c4.1-11.7,7.2-24,13.9-34.4c1.7-2.6,7.5-13.8-0.5-11.4C425.9,462.9,423.6,473.3,421.4,478.4z"/>
	</g>
	<path class="st3" d="M387.9,552.5c-3.4,2.2-6.9,4.5-10.2,6.8l-0.1-0.1c3.4-2.3,6.8-4.6,10.2-6.8L387.9,552.5z"/>
	<path class="st17" d="M277.8,592.1c1,0.6,0.9,2.1,1.7,2.9c1.4,1.5,3.9,0.2,5.8,0.8c1.9,0.7,2.6,3.2,4.5,3.9
		c1.4,0.5,3.1-0.2,4.5,0.2c2.1,0.5,3.1,3,5.2,3.6c1.7,0.5,3.5-0.4,5.2,0c2.8,0.6,3.9,4,6.5,5.2c2.5,1.1,5.7,0,7.8,1.8
		c1.4,1.2,2,3.6,3.9,3.7c0.6,0,1.2-0.3,1.8-0.2c1,0.1,1.8,1.3,3,0.4c0.5-0.4,0.8-0.9,1-1.5c0.1-0.5,0.5-1.2,0.2-1.7
		c-0.2-0.3-0.5-0.4-0.8-0.6c-1.6-0.7-3.2-1.5-4.8-2.2c-1.4-0.7-2.9-1.3-4.3-1.9c-2.4-0.9-4.9-1.6-7.3-2.5c-7.7-2.6-14.8-6.6-22-10.3
		c-3.6-1.8-7.2-3.6-11-5.1c-3.1-1.2-4.2-0.3-5,2.4c-0.2,0.6,0.3,1.2,0.9,1.1C275.5,592.2,276.8,591.5,277.8,592.1z"/>
	
		<linearGradient id="SVGID_6_" gradientUnits="userSpaceOnUse" x1="165.2408" y1="383.2193" x2="51.1285" y2="368.5721" gradientTransform="matrix(0.954 0.2997 0.2997 -0.954 247.0048 571.6652)">
		<stop  offset="0" style="stop-color:#00C5D5"/>
		<stop  offset="1" style="stop-color:#00F0F3"/>
	</linearGradient>
	<path class="st19" d="M449.4,267.4c1.3,4.7,3.3,9.4,6.5,13.1c2.1,2.5,5.4,4.5,8.5,3.5c2.1-0.7,3.4-2.7,4-4.8s0.5-4.3,0.5-6.5
		c0-5.3,0.4-10.8,2.9-15.4c3.3-6.2,10-10,16.9-11.3c6.9-1.4,14-0.6,20.9,0.5c6.9,1.1,13.8,2.5,20.8,2.5c3,0,5.9-0.3,8.8-0.9
		c2.3-0.5,4.8-1.1,6.4-2.9c2-2.1,2.4-5.4,1.5-8.2c-0.9-2.8-2.9-5.1-5-7.1c-5-4.5-11.2-7.3-17.5-9.7c-18.1-6.8-37.4-9.8-56.6-10.3
		c-5.4-0.1-11.9-1.5-14.7,4.3c-3.5,7.4-5,16.9-5.9,24.9C446.4,248.5,446.8,258.2,449.4,267.4z"/>
	<path class="st18" d="M453.2,236.4c0.2,1.3,0.6,2.6,1.5,3.4c0.9,0.9,2.5,1.1,3.4,0.2c0.4-0.4,0.6-1.1,0.8-1.7c0.9-2.8,2-5.6,4-7.7
		c1.1-1.2,2.4-2.1,3.4-3.3c1.1-1.2,1.9-2.6,1.9-4.2c0-1.4-0.9-2.7-2-3.6c-3-2.5-8.8-3.5-11,0.4C452.5,224.6,452.2,231.2,453.2,236.4
		z"/>
	<path class="st18" d="M455.4,255.4c1.3,0.7,3,0,3.8-1.3c0.8-1.2,0.9-2.8,0.7-4.3c-0.3-2.4-3-7.8-5.7-4.2
		C452.6,247.8,452.9,254,455.4,255.4z"/>
	<path class="st15" d="M483.8,406.9c-2.1,4.8-6.8,7.3-10.6,5.6c-0.9-0.4-1.6-1-2.2-1.7c-2-2.4-2.5-6.3-0.9-10
		c2-4.5,6.4-7.1,10.1-5.9c0.2,0,0.4,0.1,0.6,0.2C484.5,396.9,485.9,402.1,483.8,406.9z"/>
	<path class="st3" d="M481,405c-2,4.5-6.4,7-10.1,5.9c-2-2.4-2.5-6.3-0.9-10c2-4.5,6.4-7.1,10.1-5.9
		C482.1,397.4,482.6,401.3,481,405z"/>
	<path class="st20" d="M500.8,414.3c-2.1,4.8-6.8,7.3-10.6,5.6c-0.9-0.4-1.6-1-2.2-1.7c-2-2.4-2.5-6.3-0.9-10
		c2-4.5,6.4-7.1,10.1-5.9c0.2,0,0.4,0.1,0.6,0.2C501.4,404.3,502.8,409.5,500.8,414.3z"/>
	<path class="st21" d="M498,412.4c-2,4.5-6.4,7-10.1,5.9c-2-2.4-2.5-6.3-0.9-10c2-4.5,6.4-7.1,10.1-5.9
		C499.1,404.8,499.5,408.7,498,412.4z"/>
	<path class="st15" d="M450.4,426.7c0,0-22.9-8.2-30.9-15.7c0,0,0.5-1.1,1.5-3c3.6-7.3,13-26.2,17.5-34.8c0,0,16.2,10,27.3,15.5
		c1.3,0.6,2.5,1.2,3.6,1.7C469.4,390.3,455.4,413,450.4,426.7z"/>
	<path class="st3" d="M449,421.4c0,0-18.4-6.6-28-13.4c3.6-7.3,13-26.2,17.5-34.8c0,0,16.2,10,27.3,15.5
		C461.6,395.6,452.8,411,449,421.4z"/>
	<g>
		<path class="st6" d="M567.4,486.1c-5.6,2.5-13.8,4.1-23.1,5.2c-29.7,3.4-70,0.9-70,0.9c-3.8-24.7-16.1-48.7-16.1-48.7
			c3.5-2.3,36.4-6.9,49.2-8.7c3.1-0.4,5-0.7,5-0.7c0.6-1.4,1.3-2.7,1.9-4c21.3-45.4,35.9-67.5,35.9-67.5c33.9-28.9,56.2,1.7,62,11.4
			c1.3,2.1,2.2,4.4,2.7,6.9c4.8,26.3-17.7,79.2-38.4,98.9C573.3,482.7,570.3,484.9,567.4,486.1z"/>
		<path class="st3" d="M458.1,442.1c0,0-7.2,33.1,3.8,49.4c0,0-24.1-1.1-38.3,10.1c-1.1,0.9-2.8,0.6-3.6-0.5
			c-2.6-3.7-7.6-11.7-8.7-21.2c-0.1-0.7,0.1-1.3,0.5-1.8c1.3-1.6,4.5-5.5,9.3-9.4c2.1-1.8,0.3-5.2-2.4-4.4c-2.2,0.7-4.5,1.6-6.9,3.1
			c-1.5,0.9-3.5,0.1-3.8-1.7c-0.4-1.9-0.5-4.3,0.3-6.5c0.2-0.6,0.7-1.2,1.4-1.5c2.7-1.2,11-4.7,20-7.8c2.4-0.8,2.2-4.4-0.3-4.9
			c-1.1-0.2-2.2-0.5-3.1-0.6c-1.5-0.2-2.5-1.7-2.1-3.1c0.6-2.4,2-5.6,4.8-6.4C433.8,433.5,458.1,442.1,458.1,442.1z"/>
		<path class="st8" d="M458,442.1c0,0-8.1,34.8,4.4,49.9c0,0,9.5,2.2,14.1,0.7l-5.5-52.3C470.9,440.4,465.6,438.8,458,442.1z"/>
		<path class="st18" d="M608.6,373.8c4.4,7.2,3.8,16.3,2.3,24.5c-3,16.5-9.1,32.3-18.1,46.5c-1.1,1.7-2.6,3.6-4.7,3.6
			c-1.9,0-3.3-1.8-3.7-3.6c-0.3-1.8,0.2-3.7,0.8-5.5c3.3-9.7,8.2-18.9,11.1-28.7c2.8-9.9,3.3-21.1-2-29.8c-1.5-2.4-3.3-4.5-4.7-7
			c-1.4-2.4-2.3-5.3-1.6-8C591.1,354,605.9,369.4,608.6,373.8z"/>
	</g>
	<path class="st18" d="M506.1,176.6c10.1-2.3,20.6-3.2,31-2.8c1.1,0,2.4,0.2,2.9,1.1c0.5,0.9,0,2.2-0.9,2.9c-0.9,0.6-2,0.8-3.1,0.9
		c-10.3,1.1-20.7,2.7-29.8,7.7c-3.5,1.9-6.7,4.4-10.3,6.2c-4.6,2.3-23.8,6.4-15-4C486.7,181.7,497.6,178.5,506.1,176.6z"/>
	<path class="st18" d="M345.5,480.7c-0.4,0.5-0.9,1.1-1,1.7s0.5,1.4,1.1,1.3c0.3,0,0.5-0.2,0.7-0.4c6.8-4.8,13.6-9.6,20.4-14.3
		c1.7-1.2,6.5-4.9,3.7-7.3c-2.4-2-6.2,1.6-7.9,2.9C356.4,469.5,350.7,474.8,345.5,480.7z"/>
	<path class="st22" d="M436.4,386L436.4,386c-0.5-0.3-0.7-0.8-0.4-1.3l2.8-5.4c0.3-0.5,0.8-0.7,1.3-0.4l0,0c0.5,0.3,0.7,0.8,0.4,1.3
		l-2.8,5.4C437.5,386,436.9,386.2,436.4,386z"/>
	<path class="st23" d="M441.7,388.7L441.7,388.7c-0.5-0.3-0.7-0.8-0.4-1.3l2.8-5.4c0.3-0.5,0.8-0.7,1.3-0.4l0,0
		c0.5,0.3,0.7,0.8,0.4,1.3l-2.8,5.4C442.7,388.8,442.1,388.9,441.7,388.7z"/>
	<path class="st24" d="M456.3,396.6L456.3,396.6c-0.5-0.3-0.7-0.8-0.4-1.3l2.8-5.4c0.3-0.5,0.8-0.7,1.3-0.4l0,0
		c0.5,0.3,0.7,0.8,0.4,1.3l-2.8,5.4C457.4,396.7,456.8,396.9,456.3,396.6z"/>
	<path class="st16" d="M430.1,391.7l-6.3,12.6c-0.3,0.7-0.1,1.5,0.5,1.9c2.7,1.8,10.1,6.4,19.1,9.3c0.7,0.2,1.4-0.1,1.7-0.7
		c1.2-2.4,4.1-8,6.1-11.5c0.4-0.7,0.1-1.6-0.6-2c-3.8-1.9-14.1-7.2-18.5-10.1C431.5,390.6,430.5,390.9,430.1,391.7z"/>
	
		<linearGradient id="SVGID_7_" gradientUnits="userSpaceOnUse" x1="179.3933" y1="249.0956" x2="426.389" y2="115.3715" gradientTransform="matrix(0.7743 -0.5586 -9.120000e-02 -1.2257 -84.2868 471.3574)">
		<stop  offset="0" style="stop-color:#1DD7FF"/>
		<stop  offset="1" style="stop-color:#A769FF"/>
	</linearGradient>
	<path class="st25" d="M194.2,114.3L77.6,151.1c-5.1,1.6-9.5-2.3-9.7-8.7l-3.5-84.5c-0.3-6.4,3.7-12.9,8.8-14.5L189.8,6.6
		c5.1-1.6,9.5,2.3,9.7,8.7l3.5,84.5C203.3,106.2,199.3,112.7,194.2,114.3z"/>
	
		<linearGradient id="SVGID_8_" gradientUnits="userSpaceOnUse" x1="494.2666" y1="50.0128" x2="680.3206" y2="-50.7172" gradientTransform="matrix(0.7743 -0.5586 -9.120000e-02 -1.2257 -84.2868 471.3574)">
		<stop  offset="0" style="stop-color:#1DD7FF"/>
		<stop  offset="1" style="stop-color:#A769FF"/>
	</linearGradient>
	<path class="st26" d="M418.3,153.4l-93.4,29.4c-5.1,1.6-9.5-2.3-9.7-8.7l-1-25.6c-0.3-6.4,3.7-12.9,8.8-14.5l93.4-29.4
		c5.1-1.6,9.5,2.3,9.7,8.7l1,25.6C427.3,145.3,423.4,151.8,418.3,153.4z"/>
</g>
<linearGradient id="SVGID_9_" gradientUnits="userSpaceOnUse" x1="251.0306" y1="-62.4243" x2="427.0003" y2="-157.6946" gradientTransform="matrix(0.7562 -0.5828 -0.1299 -1.2222 -143.8116 328.1475)">
	<stop  offset="0" style="stop-color:#1DD7FF"/>
	<stop  offset="0.233" style="stop-color:#4CB2FF"/>
	<stop  offset="0.4658" style="stop-color:#7392FF"/>
	<stop  offset="0.6781" style="stop-color:#907CFF"/>
	<stop  offset="0.863" style="stop-color:#A16EFF"/>
	<stop  offset="1" style="stop-color:#A769FF"/>
</linearGradient>
<path class="st27" d="M176.5,256.7l-97.8,34.2c-3.8,1.3-7.2-1.5-7.5-6.3l0,0c-0.4-4.8,2.5-9.8,6.2-11.1l97.8-34.2
	c3.8-1.3,7.2,1.5,7.5,6.3l0,0C183.1,250.3,180.2,255.3,176.5,256.7z"/>
<linearGradient id="SVGID_10_" gradientUnits="userSpaceOnUse" x1="254.881" y1="-16.7669" x2="430.8507" y2="-112.0372" gradientTransform="matrix(0.7562 -0.5828 -0.1299 -1.2222 -143.8116 328.1475)">
	<stop  offset="7.268713e-03" style="stop-color:#1DD7FF"/>
	<stop  offset="0.2385" style="stop-color:#4CB2FF"/>
	<stop  offset="0.4696" style="stop-color:#7392FF"/>
	<stop  offset="0.6804" style="stop-color:#907CFF"/>
	<stop  offset="0.864" style="stop-color:#A16EFF"/>
	<stop  offset="1" style="stop-color:#A769FF"/>
</linearGradient>
<path class="st28" d="M173.4,198.6l-97.8,34.2c-3.8,1.3-7.2-1.5-7.5-6.3l0,0c-0.4-4.8,2.5-9.8,6.2-11.1l97.8-34.2
	c3.8-1.3,7.2,1.5,7.5,6.3l0,0C180,192.3,177.2,197.3,173.4,198.6z"/>
<linearGradient id="SVGID_11_" gradientUnits="userSpaceOnUse" x1="248.3184" y1="-85.4512" x2="424.2881" y2="-180.7216" gradientTransform="matrix(0.7562 -0.5828 -0.1299 -1.2222 -143.8116 328.1475)">
	<stop  offset="0" style="stop-color:#1DD7FF"/>
	<stop  offset="0.233" style="stop-color:#4CB2FF"/>
	<stop  offset="0.4658" style="stop-color:#7392FF"/>
	<stop  offset="0.6781" style="stop-color:#907CFF"/>
	<stop  offset="0.863" style="stop-color:#A16EFF"/>
	<stop  offset="1" style="stop-color:#A769FF"/>
</linearGradient>
<path class="st29" d="M177.4,286.4l-97.8,34.2c-3.8,1.3-7.2-1.5-7.5-6.3l0,0c-0.4-4.8,2.5-9.8,6.2-11.1l97.8-34.2
	c3.8-1.3,7.2,1.5,7.5,6.3l0,0C184,280.1,181.2,285.1,177.4,286.4z"/>
<linearGradient id="SVGID_12_" gradientUnits="userSpaceOnUse" x1="245.399" y1="-110.237" x2="421.3687" y2="-205.5074" gradientTransform="matrix(0.7562 -0.5828 -0.1299 -1.2222 -143.8116 328.1475)">
	<stop  offset="0" style="stop-color:#1DD7FF"/>
	<stop  offset="0.233" style="stop-color:#4CB2FF"/>
	<stop  offset="0.4658" style="stop-color:#7392FF"/>
	<stop  offset="0.6781" style="stop-color:#907CFF"/>
	<stop  offset="0.863" style="stop-color:#A16EFF"/>
	<stop  offset="1" style="stop-color:#A769FF"/>
</linearGradient>
<path class="st30" d="M178.4,318.4l-97.8,34.2c-3.8,1.3-7.2-1.5-7.5-6.3l0,0c-0.4-4.8,2.5-9.8,6.2-11.1l97.8-34.2
	c3.8-1.3,7.2,1.5,7.5,6.3l0,0C185,312.1,182.2,317.1,178.4,318.4z"/>
<path class="st31" d="M303.3,322c-0.3-0.3-0.6-0.9-0.6-1.3c-0.1-2.3-0.4-3.7,1-8.2c6.7-23.1,18-38.5,22.7-37.6
	c0.9,0.2,4.5,3.1,4.6,3.8c-1.4,3-2.7,2.6-8.5,9.5c-5.5,6.5-10.4,12.4-11,20.1c-0.3,2.9,0,7.2-2.6,11.8c-0.7,1.3-2.2,4.2-4.1,3.7
	C304.4,323.3,304.7,323.7,303.3,322z"/>
<path class="st31" d="M463.5,492.7c-0.4-0.1-1.4-0.7-1.8-1c-1.9-1.4-3.1-2.6-4.2-7.4c-6.5-23.2-3.7-41.4,0.7-43.1
	c0.8-0.3,4.9-0.7,5.4-0.2c0.4,3.3-0.9,3.6-2.2,12.5c-1.2,8.4-2.3,16,1.3,22.9c1.3,2.6,3.8,6.1,4,11.4c0.1,1.5,0.4,4.8-1.5,5.3
	C464.5,493,464.5,493,463.5,492.7z"/>
</svg>
